<?xml version="1.0" encoding="UTF-8" standalone="no"?>
<!DOCTYPE svg PUBLIC "-//W3C//DTD SVG 1.1//EN" "http://www.w3.org/Graphics/SVG/1.1/DTD/svg11.dtd">
<svg width="100%" height="100%" viewBox="0 0 642 598" version="1.1" xmlns="http://www.w3.org/2000/svg" xmlns:xlink="http://www.w3.org/1999/xlink" xml:space="preserve" xmlns:serif="http://www.serif.com/" style="fill-rule:evenodd;clip-rule:evenodd;stroke-linejoin:round;stroke-miterlimit:2;">
    <g transform="matrix(1,0,0,1,-219.071,-241.375)">
        <g transform="matrix(1,0,0,1,-9.0881,-16.1823)">
            <g transform="matrix(-1,-1.11022e-16,1.11022e-16,-1,1089.13,1033.38)">
                <circle cx="437.394" cy="396.858" r="218.281" style="fill:rgb(149,142,187);fill-opacity:0.5;"/>
            </g>
            <g transform="matrix(-1,-1.11022e-16,1.11022e-16,-1,986.482,872.696)">
                <circle cx="437.394" cy="396.858" r="218.281" style="fill:rgb(247,243,249);fill-opacity:0.5;"/>
            </g>
            <g transform="matrix(-1,-1.11022e-16,1.11022e-16,-1,883.834,1033.38)">
                <circle cx="437.394" cy="396.858" r="218.281" style="fill:rgb(214,210,236);fill-opacity:0.5;"/>
            </g>
            <path d="M549.088,443.873C617.871,480.624 664.721,553.147 664.721,636.526C664.721,645.104 664.225,653.567 663.262,661.873C630.035,682.322 590.928,694.119 549.088,694.119C507.248,694.119 468.142,682.322 434.914,661.873C433.951,653.567 433.455,645.104 433.455,636.526C433.455,553.147 480.306,480.624 549.088,443.873Z" style="fill:rgb(173,218,216);fill-opacity:0.4;"/>
            <g transform="matrix(1,0,0,1,35.305,-41.8126)">
                <path d="M482.171,383.883L482.171,363.947L483.599,363.947L491.943,382.903L491.019,382.903L499.279,363.947L500.735,363.947L500.735,383.883L499.111,383.883L499.111,365.991L499.923,366.075L492.111,383.883L490.823,383.883L482.871,366.047L483.767,365.991L483.795,383.883L482.171,383.883Z" style="fill:rgb(149,142,187);fill-rule:nonzero;"/>
                <path d="M522.547,383.883L511.179,373.775L522.015,363.947L524.311,363.947L512.859,374.335L512.915,373.103L524.899,383.883L522.547,383.883ZM510.115,383.883L510.115,363.947L511.823,363.947L511.823,383.883L510.115,383.883Z" style="fill:rgb(149,142,187);fill-rule:nonzero;"/>
                <path d="M536.519,383.883L536.519,365.459L529.379,365.459L529.379,363.947L545.395,363.947L545.395,365.459L538.255,365.459L538.255,383.883L536.519,383.883Z" style="fill:rgb(149,142,187);fill-rule:nonzero;"/>
            </g>
            <g transform="matrix(1,0,0,1,-121.676,385.773)">
                <path d="M487.043,383.883L487.043,365.459L479.903,365.459L479.903,363.947L495.919,363.947L495.919,365.459L488.779,365.459L488.779,383.883L487.043,383.883Z" style="fill:rgb(149,142,187);fill-rule:nonzero;"/>
                <path d="M503.059,383.883L503.059,363.947L515.323,363.947L515.323,365.431L504.767,365.431L504.767,373.019L514.763,373.019L514.763,374.531L504.767,374.531L504.767,382.399L515.323,382.399L515.323,383.883L503.059,383.883Z" style="fill:rgb(149,142,187);fill-rule:nonzero;"/>
                <path d="M531.759,384.107C529.892,384.107 528.287,383.701 526.943,382.889C525.599,382.077 524.558,380.906 523.821,379.375C523.084,377.845 522.715,376.015 522.715,373.887C522.715,371.759 523.084,369.939 523.821,368.427C524.558,366.915 525.599,365.753 526.943,364.941C528.287,364.129 529.892,363.723 531.759,363.723C533.14,363.723 534.405,363.938 535.553,364.367C536.701,364.797 537.695,365.45 538.535,366.327L537.835,367.699C536.864,366.841 535.898,366.225 534.937,365.851C533.976,365.478 532.916,365.291 531.759,365.291C529.463,365.291 527.68,366.038 526.411,367.531C525.142,369.025 524.507,371.143 524.507,373.887C524.507,376.65 525.142,378.783 526.411,380.285C527.68,381.788 529.463,382.539 531.759,382.539C532.916,382.539 533.976,382.353 534.937,381.979C535.898,381.606 536.864,380.99 537.835,380.131L538.535,381.503C537.695,382.381 536.701,383.034 535.553,383.463C534.405,383.893 533.14,384.107 531.759,384.107Z" style="fill:rgb(149,142,187);fill-rule:nonzero;"/>
                <path d="M561.271,383.883L561.271,363.947L563.007,363.947L563.007,383.883L561.271,383.883ZM546.851,383.883L546.851,363.947L548.559,363.947L548.559,383.883L546.851,383.883ZM547.831,374.503L547.831,373.019L562.195,373.019L562.195,374.503L547.831,374.503Z" style="fill:rgb(149,142,187);fill-rule:nonzero;"/>
            </g>
            <g transform="matrix(1,0,0,1,176.106,382.09)">
                <path d="M482.171,383.883L482.171,363.947L488.555,363.947C490.664,363.947 492.456,364.33 493.931,365.095C495.406,365.861 496.53,366.985 497.305,368.469C498.08,369.953 498.467,371.759 498.467,373.887C498.467,376.034 498.075,377.849 497.291,379.333C496.507,380.817 495.378,381.947 493.903,382.721C492.428,383.496 490.646,383.883 488.555,383.883L482.171,383.883ZM483.879,382.371L488.471,382.371C491.178,382.371 493.212,381.662 494.575,380.243C495.938,378.825 496.619,376.706 496.619,373.887C496.619,368.269 493.903,365.459 488.471,365.459L483.879,365.459L483.879,382.371Z" style="fill:rgb(235,235,235);fill-rule:nonzero;"/>
                <path d="M507.063,383.883L507.063,363.947L519.327,363.947L519.327,365.431L508.771,365.431L508.771,373.019L518.767,373.019L518.767,374.531L508.771,374.531L508.771,382.399L519.327,382.399L519.327,383.883L507.063,383.883Z" style="fill:rgb(235,235,235);fill-rule:nonzero;"/>
                <path d="M533.495,384.107C532.468,384.107 531.516,384.014 530.639,383.827C529.762,383.641 528.954,383.356 528.217,382.973C527.48,382.591 526.794,382.101 526.159,381.503L526.887,380.131C527.876,381.009 528.88,381.634 529.897,382.007C530.914,382.381 532.123,382.567 533.523,382.567C535.203,382.567 536.51,382.222 537.443,381.531C538.376,380.841 538.843,379.87 538.843,378.619C538.843,377.835 538.6,377.219 538.115,376.771C537.63,376.323 536.995,375.969 536.211,375.707C535.427,375.446 534.568,375.203 533.635,374.979C532.758,374.793 531.899,374.573 531.059,374.321C530.219,374.069 529.454,373.743 528.763,373.341C528.072,372.94 527.526,372.422 527.125,371.787C526.724,371.153 526.523,370.341 526.523,369.351C526.523,368.231 526.808,367.247 527.377,366.397C527.946,365.548 528.758,364.89 529.813,364.423C530.868,363.957 532.123,363.723 533.579,363.723C534.475,363.723 535.334,363.821 536.155,364.017C536.976,364.213 537.742,364.507 538.451,364.899C539.16,365.291 539.795,365.767 540.355,366.327L539.627,367.699C538.694,366.859 537.742,366.243 536.771,365.851C535.8,365.459 534.736,365.263 533.579,365.263C531.899,365.263 530.592,365.623 529.659,366.341C528.726,367.06 528.259,368.063 528.259,369.351C528.259,370.154 528.474,370.803 528.903,371.297C529.332,371.792 529.916,372.179 530.653,372.459C531.39,372.739 532.198,372.991 533.075,373.215C533.971,373.421 534.862,373.64 535.749,373.873C536.636,374.107 537.448,374.405 538.185,374.769C538.922,375.133 539.51,375.619 539.949,376.225C540.388,376.832 540.607,377.63 540.607,378.619C540.607,379.721 540.318,380.682 539.739,381.503C539.16,382.325 538.339,382.964 537.275,383.421C536.211,383.879 534.951,384.107 533.495,384.107Z" style="fill:rgb(235,235,235);fill-rule:nonzero;"/>
                <rect x="548.727" y="363.947" width="1.708" height="19.936" style="fill:rgb(235,235,235);fill-rule:nonzero;"/>
                <path d="M568.355,384.107C566.414,384.107 564.748,383.701 563.357,382.889C561.966,382.077 560.898,380.911 560.151,379.389C559.404,377.868 559.031,376.034 559.031,373.887C559.031,371.741 559.404,369.911 560.151,368.399C560.898,366.887 561.957,365.73 563.329,364.927C564.701,364.125 566.33,363.723 568.215,363.723C569.578,363.723 570.833,363.938 571.981,364.367C573.129,364.797 574.132,365.45 574.991,366.327L574.263,367.699C573.292,366.841 572.331,366.22 571.379,365.837C570.427,365.455 569.363,365.263 568.187,365.263C565.835,365.263 564.02,366.01 562.741,367.503C561.462,368.997 560.823,371.125 560.823,373.887C560.823,376.706 561.472,378.862 562.769,380.355C564.066,381.849 565.938,382.595 568.383,382.595C569.428,382.595 570.446,382.497 571.435,382.301C572.424,382.105 573.292,381.839 574.039,381.503L573.619,382.651L573.619,375.147L568.355,375.147L568.355,373.663L575.187,373.663L575.187,382.763C574.702,383.025 574.09,383.258 573.353,383.463C572.616,383.669 571.813,383.827 570.945,383.939C570.077,384.051 569.214,384.107 568.355,384.107Z" style="fill:rgb(235,235,235);fill-rule:nonzero;"/>
                <path d="M584.371,383.883L584.371,363.947L585.715,363.947L598.987,381.811L598.343,381.867L598.343,363.947L599.967,363.947L599.967,383.883L598.623,383.883L585.351,366.047L585.967,365.963L585.967,383.883L584.371,383.883Z" style="fill:rgb(235,235,235);fill-rule:nonzero;"/>
            </g>
            <g transform="matrix(1,0,0,1,-17.7677,216.926)">
                <path d="M482.171,383.883L482.171,363.947L489.815,363.947C491.812,363.947 493.38,364.433 494.519,365.403C495.658,366.374 496.227,367.709 496.227,369.407C496.227,371.106 495.658,372.45 494.519,373.439C493.38,374.429 491.812,374.923 489.815,374.923L483.879,374.923L483.879,383.883L482.171,383.883ZM483.879,373.411L489.703,373.411C491.29,373.411 492.48,373.066 493.273,372.375C494.066,371.685 494.463,370.695 494.463,369.407C494.463,368.138 494.066,367.158 493.273,366.467C492.48,365.777 491.29,365.431 489.703,365.431L483.879,365.431L483.879,373.411Z" style="fill:white;fill-rule:nonzero;"/>
                <path d="M504.403,383.883L504.403,363.947L512.047,363.947C514.138,363.947 515.752,364.414 516.891,365.347C518.03,366.281 518.599,367.634 518.599,369.407C518.599,371.106 518.025,372.431 516.877,373.383C515.729,374.335 514.119,374.811 512.047,374.811L514.035,374.447C514.763,374.447 515.388,374.643 515.911,375.035C516.434,375.427 516.854,376.071 517.171,376.967L519.719,383.883L517.899,383.883L515.463,377.247C515.108,376.314 514.642,375.703 514.063,375.413C513.484,375.124 512.691,374.979 511.683,374.979L506.083,374.979L506.083,383.883L504.403,383.883ZM506.111,373.495L511.963,373.495C513.606,373.495 514.833,373.15 515.645,372.459C516.457,371.769 516.863,370.751 516.863,369.407C516.863,368.082 516.462,367.088 515.659,366.425C514.856,365.763 513.624,365.431 511.963,365.431L506.111,365.431L506.111,373.495Z" style="fill:white;fill-rule:nonzero;"/>
                <path d="M535.847,384.107C533.999,384.107 532.412,383.697 531.087,382.875C529.762,382.054 528.74,380.883 528.021,379.361C527.302,377.84 526.943,376.025 526.943,373.915C526.943,371.806 527.302,369.991 528.021,368.469C528.74,366.948 529.762,365.777 531.087,364.955C532.412,364.134 533.999,363.723 535.847,363.723C537.676,363.723 539.258,364.134 540.593,364.955C541.928,365.777 542.95,366.943 543.659,368.455C544.368,369.967 544.723,371.778 544.723,373.887C544.723,375.997 544.364,377.817 543.645,379.347C542.926,380.878 541.904,382.054 540.579,382.875C539.254,383.697 537.676,384.107 535.847,384.107ZM535.819,382.567C538.059,382.567 539.8,381.811 541.041,380.299C542.282,378.787 542.903,376.65 542.903,373.887C542.903,371.125 542.287,368.997 541.055,367.503C539.823,366.01 538.078,365.263 535.819,365.263C533.579,365.263 531.838,366.015 530.597,367.517C529.356,369.02 528.735,371.143 528.735,373.887C528.735,376.631 529.356,378.764 530.597,380.285C531.838,381.807 533.579,382.567 535.819,382.567Z" style="fill:white;fill-rule:nonzero;"/>
                <path d="M553.347,383.883L553.347,363.947L559.731,363.947C561.84,363.947 563.632,364.33 565.107,365.095C566.582,365.861 567.706,366.985 568.481,368.469C569.256,369.953 569.643,371.759 569.643,373.887C569.643,376.034 569.251,377.849 568.467,379.333C567.683,380.817 566.554,381.947 565.079,382.721C563.604,383.496 561.822,383.883 559.731,383.883L553.347,383.883ZM555.055,382.371L559.647,382.371C562.354,382.371 564.388,381.662 565.751,380.243C567.114,378.825 567.795,376.706 567.795,373.887C567.795,368.269 565.079,365.459 559.647,365.459L555.055,365.459L555.055,382.371Z" style="fill:white;fill-rule:nonzero;"/>
                <path d="M585.827,384.107C583.288,384.107 581.366,383.44 580.059,382.105C578.752,380.771 578.099,378.806 578.099,376.211L578.099,363.947L579.779,363.947L579.779,376.407C579.779,378.461 580.288,380.001 581.305,381.027C582.322,382.054 583.83,382.567 585.827,382.567C587.787,382.567 589.276,382.049 590.293,381.013C591.31,379.977 591.819,378.442 591.819,376.407L591.819,363.947L593.527,363.947L593.527,376.211C593.527,378.787 592.874,380.747 591.567,382.091C590.26,383.435 588.347,384.107 585.827,384.107Z" style="fill:white;fill-rule:nonzero;"/>
                <path d="M611.027,384.107C609.16,384.107 607.555,383.701 606.211,382.889C604.867,382.077 603.826,380.906 603.089,379.375C602.352,377.845 601.983,376.015 601.983,373.887C601.983,371.759 602.352,369.939 603.089,368.427C603.826,366.915 604.867,365.753 606.211,364.941C607.555,364.129 609.16,363.723 611.027,363.723C612.408,363.723 613.673,363.938 614.821,364.367C615.969,364.797 616.963,365.45 617.803,366.327L617.103,367.699C616.132,366.841 615.166,366.225 614.205,365.851C613.244,365.478 612.184,365.291 611.027,365.291C608.731,365.291 606.948,366.038 605.679,367.531C604.41,369.025 603.775,371.143 603.775,373.887C603.775,376.65 604.41,378.783 605.679,380.285C606.948,381.788 608.731,382.539 611.027,382.539C612.184,382.539 613.244,382.353 614.205,381.979C615.166,381.606 616.132,380.99 617.103,380.131L617.803,381.503C616.963,382.381 615.969,383.034 614.821,383.463C613.673,383.893 612.408,384.107 611.027,384.107Z" style="fill:white;fill-rule:nonzero;"/>
                <path d="M630.711,383.883L630.711,365.459L623.571,365.459L623.571,363.947L639.587,363.947L639.587,365.459L632.447,365.459L632.447,383.883L630.711,383.883Z" style="fill:white;fill-rule:nonzero;"/>
            </g>
        </g>
    </g>
</svg>
