<?xml version="1.0" encoding="UTF-8" standalone="no"?>
<!DOCTYPE svg PUBLIC "-//W3C//DTD SVG 1.1//EN" "http://www.w3.org/Graphics/SVG/1.1/DTD/svg11.dtd">
<svg width="100%" height="100%" viewBox="0 0 41 71" version="1.1" xmlns="http://www.w3.org/2000/svg" xmlns:xlink="http://www.w3.org/1999/xlink" xml:space="preserve" xmlns:serif="http://www.serif.com/" style="fill-rule:evenodd;clip-rule:evenodd;stroke-linejoin:round;stroke-miterlimit:2;">
    <g transform="matrix(1,0,0,1,-9434.34,-116.963)">
        <g transform="matrix(1,0,0,1,1201.22,3268.63)">
            <g transform="matrix(-0.569173,0,0,4.16667,8360.6,-3733.2)">
                <rect x="152.001" y="139.569" width="71.967" height="0.746" style="fill:rgb(150,180,180);"/>
            </g>
        </g>
        <g transform="matrix(1,0,0,1,1201.22,3268.63)">
            <g transform="matrix(-0.569173,0,0,4.16667,8360.6,-3568.08)">
                <rect x="152.001" y="116.209" width="71.967" height="0.746" style="fill:rgb(150,180,180);"/>
            </g>
        </g>
        <g transform="matrix(1,0,0,1,1201.22,3268.63)">
            <g transform="matrix(4.16667,0,0,4.16667,8236.77,-3092.81)">
                <path d="M0,-11.482C0.979,-11.492 1.958,-11.508 2.937,-11.511C4.348,-11.516 5.76,-11.496 7.172,-11.522C7.622,-11.53 7.751,-11.374 7.726,-10.949C7.695,-10.432 7.705,-9.912 7.723,-9.394C7.734,-9.058 7.608,-8.938 7.271,-8.941C6.018,-8.955 4.764,-8.934 3.511,-8.953C3.131,-8.959 2.989,-8.832 3.014,-8.455C3.038,-8.111 3.031,-7.764 3.017,-7.419C3.004,-7.098 3.146,-6.988 3.457,-6.991C4.466,-7.002 5.474,-6.981 6.481,-7.002C6.894,-7.01 7.054,-6.871 7.028,-6.454C7,-5.994 7.009,-5.532 7.025,-5.071C7.038,-4.737 6.91,-4.613 6.572,-4.618C5.563,-4.633 4.555,-4.604 3.547,-4.631C3.119,-4.643 2.984,-4.487 3.014,-4.082C3.04,-3.709 3.034,-3.332 3.016,-2.958C2.999,-2.616 3.144,-2.51 3.476,-2.514C4.83,-2.527 6.184,-2.504 7.538,-2.527C7.96,-2.534 8.095,-2.39 8.074,-1.981C8.045,-1.434 8.063,-0.886 8.066,-0.338C8.068,-0.105 8.012,0.048 7.733,0.047C5.156,0.034 2.578,0.026 0,0.017L0,-11.482Z" style="fill:rgb(150,180,180);fill-rule:nonzero;"/>
            </g>
        </g>
    </g>
</svg>
