<svg width="474" height="172" viewBox="0 0 474 172" fill="none" xmlns="http://www.w3.org/2000/svg">
<path fill-rule="evenodd" clip-rule="evenodd" d="M189.253 77.1884C204.959 75.1074 222.942 73.6354 234.625 71.2044C249.517 68.1044 267.098 62.4474 278.516 58.7074C286.924 55.9534 292.948 53.6974 301.587 51.7864C312.014 49.4794 331.707 45.7374 341.078 44.8674C346.66 44.3494 352.299 47.4874 357.811 46.5684C363.785 45.5724 365.714 43.7144 368.899 42.7994C372.042 41.8974 373.818 42.1224 376.919 41.0834C380.568 39.8594 389.003 33.7404 389.003 33.7404L397.858 25.8894H403.627L394.544 33.7404L422.17 24.8714L435.747 18.9014L450.975 11.7514L473.011 0.150391L469.512 3.92439C469.512 3.92439 436.641 20.9114 428.066 25.8894C421.824 29.5134 412.949 32.1044 408.036 33.7404C401.525 35.9074 394.063 37.6684 389.003 38.8924C386.886 39.4044 382.849 41.0834 382.849 41.0834C382.849 41.0834 386.952 43.9154 389.003 43.9154C390.144 43.9154 393.602 44.5564 395.733 43.9154C398.274 43.1504 399.429 41.0834 399.429 41.0834L403.627 42.7994C403.627 42.7994 400.134 45.4424 395.733 46.5684C393.647 47.1024 390.435 47.4334 389.003 47.6354C387.706 47.8184 385.226 46.7744 382.849 46.7414C379.799 46.7004 376.919 46.5684 376.919 46.5684C376.919 46.5684 375.45 55.0324 376.919 58.7074C378.387 62.3824 385.728 68.6184 385.728 68.6184H382.849C382.849 68.6184 375.569 62.3824 374.113 58.7074C372.657 55.0324 374.113 46.5684 374.113 46.5684C374.113 46.5684 363.099 51.7864 357.811 51.7864C354.214 51.7864 345.116 49.0334 341.078 48.7664C337.417 48.5244 335.583 49.3694 330.162 50.1834C324.11 51.0914 312.174 52.6554 304.765 54.2134C297.357 55.7724 292.653 58.1404 286.099 60.1544C280.236 61.9554 265.442 66.2964 265.442 66.2964C265.442 66.2964 281.162 68.6184 286.099 68.6184H295.729L299.586 58.7074L301.587 62.6604V68.6184C301.587 68.6184 309.528 68.9184 313.481 68.6184C318.583 68.2314 332.2 66.2964 332.2 66.2964L336.811 68.6184C336.811 68.6184 326.1 70.6084 315.134 72.0734C309.56 72.8184 303.919 73.4264 299.586 73.5694C286.506 74.0004 259.377 71.2044 259.377 71.2044C259.377 71.2044 256.857 71.7914 243.46 75.1184C226.863 79.2414 185.375 84.1014 178.161 86.1134C168.775 88.7304 162.1 90.2984 151.772 94.0744C149.873 94.7684 145.144 96.6114 139.874 98.7194C141.431 99.2724 143.221 99.6854 145.027 99.8984C147.98 100.245 150.98 100.062 153.054 99.0264C153.302 98.9014 153.605 99.0024 153.729 99.2514C153.853 99.4994 153.752 99.8014 153.504 99.9264C151.282 101.036 148.073 101.269 144.909 100.897C142.616 100.627 140.35 100.042 138.508 99.2674C131.539 102.067 123.984 105.191 120.905 106.686C114.893 109.607 108.237 112.541 100.901 114.214C97.096 115.081 93.566 115.969 91.11 116.606C83.135 123.825 73.439 131.792 70.38 134.342C52.294 149.417 10.469 171.831 10.469 171.831H0C0 171.831 37.156 150.654 62.836 131.942C73.698 124.027 93.262 107.432 105.938 93.1594C114.459 83.5654 121.613 72.2724 121.613 72.2724L128.555 65.9554C128.555 65.9554 112.853 90.7724 101.642 105.974C101.196 106.579 100.617 107.272 99.929 108.034C105.484 105.649 113.629 102.244 120.905 99.5574C128.504 96.7504 135.218 93.1234 143.636 89.4504C143.827 88.8504 144.044 88.2584 144.284 87.6744C144.868 86.2444 145.576 84.8604 146.296 83.5074C146.642 82.8594 147.032 82.2784 147.447 81.7314C148.388 80.4944 149.464 79.4384 150.422 78.1274C152.096 75.8354 153.887 73.6154 155.729 71.4344C158.485 68.1714 161.357 65.0004 164.141 61.8374C164.294 61.6594 164.564 61.6394 164.741 61.7934C164.919 61.9474 164.939 62.2164 164.785 62.3934C162.065 65.6024 159.252 68.8154 156.565 72.1264C156.413 72.3144 156.261 72.5024 156.11 72.6904C156.871 72.3814 157.765 72.2724 158.48 72.0124L168.401 69.5614C168.627 69.4974 168.862 69.6284 168.927 69.8544C168.991 70.0794 168.86 70.3154 168.634 70.3804L158.771 72.8124C158.149 73.0384 157.391 73.1504 156.704 73.3784C156.306 73.5114 155.932 73.6844 155.645 73.9714C155.488 74.1284 155.239 74.1364 155.071 73.9974C153.82 75.5914 152.607 77.2104 151.453 78.8634C150.519 80.2004 149.46 81.2834 148.543 82.5454C148.181 83.0434 147.843 83.5704 147.546 84.1574C146.874 85.4804 146.214 86.8334 145.672 88.2284C145.618 88.3654 145.566 88.5044 145.515 88.6434C152.365 85.7434 160.392 82.8524 170.87 80.3514C175.675 79.2044 181.415 78.2584 187.561 77.4164C187.807 76.8124 188.07 76.2134 188.348 75.6214C189.333 73.5254 190.516 71.5264 191.886 69.8134C192.426 69.1394 193.005 68.0554 193.695 67.2514C194.076 66.8074 194.493 66.4424 194.939 66.2194C195.302 66.0374 195.744 66.1854 195.925 66.5484C196.107 66.9114 195.959 67.3534 195.596 67.5344L193.035 70.7324C191.734 72.3584 190.614 74.2564 189.679 76.2464C189.532 76.5584 189.39 76.8724 189.253 77.1884Z" fill="url(#paint0_linear_24_161)"/>
<path d="M128.661 104.28L128.114 104.735C126.661 105.942 126.008 107.451 126.338 108.786C126.607 109.873 127.499 110.753 128.823 111.258C130.146 111.763 131.854 111.871 133.625 111.433L128.661 104.28ZM128.661 104.28L128.047 103.919M128.661 104.28L128.047 103.919M142.733 114.701C141.851 115.391 140.607 115.532 139.253 115.113C137.901 114.694 136.491 113.725 135.367 112.287L135.366 112.286C135.159 112.022 134.97 111.75 134.798 111.476L134.592 111.148L134.223 111.265C134.029 111.326 133.829 111.382 133.625 111.433L142.733 114.701ZM142.733 114.701C143.867 113.815 144.271 112.118 143.779 110.171M142.733 114.701L143.779 110.171M128.047 103.919C126.665 103.106 125.635 102.02 125.072 100.903C124.509 99.786 124.424 98.6732 124.851 97.7455L124.851 97.7454M128.047 103.919L124.851 97.7454M124.851 97.7454C125.319 96.7281 126.36 96.0319 127.756 95.7843C129.149 95.537 130.847 95.7513 132.505 96.5145L132.505 96.5145M124.851 97.7454L132.505 96.5145M132.505 96.5145C133.247 96.856 133.912 97.2763 134.485 97.7466L134.872 98.0649M132.505 96.5145L134.872 98.0649M134.872 98.0649L135.189 97.6767M134.872 98.0649L135.189 97.6767M135.189 97.6767C136.444 96.1419 138.026 95.4594 139.401 95.8282L139.402 95.8283M135.189 97.6767L139.402 95.8283M139.402 95.8283C141.034 96.2657 142.185 98.1488 142.224 100.672L142.232 101.206M139.402 95.8283L142.232 101.206M142.232 101.206L142.765 101.163M142.232 101.206L142.765 101.163M142.765 101.163C144.238 101.041 145.589 101.294 146.62 101.818C147.65 102.341 148.338 103.119 148.57 104.053L148.57 104.053M142.765 101.163L148.57 104.053M148.57 104.053C148.82 105.063 148.512 106.161 147.718 107.167C146.924 108.172 145.664 109.051 144.105 109.574L143.666 109.722M148.57 104.053L143.666 109.722M143.666 109.722L143.779 110.171M143.666 109.722L143.779 110.171" fill="url(#paint1_radial_24_161)" stroke="#E84D7E"/>
<path d="M217.22 68.8859L216.73 69.3158C215.582 70.3236 215.045 71.6049 215.285 72.7559L217.22 68.8859ZM217.22 68.8859L216.678 68.5241M217.22 68.8859L216.678 68.5241M216.678 68.5241C215.611 67.8122 214.822 66.8702 214.396 65.9054C213.97 64.9394 213.921 63.9831 214.268 63.1967L214.268 63.1966M216.678 68.5241L214.268 63.1966M214.268 63.1966C214.645 62.3426 215.453 61.7769 216.522 61.5884C217.595 61.3993 218.907 61.5999 220.188 62.2724L220.188 62.2725M214.268 63.1966L220.188 62.2725M220.188 62.2725C220.761 62.5732 221.274 62.9405 221.714 63.3497L222.115 63.7222M220.188 62.2725L222.115 63.7222M222.115 63.7222L222.45 63.2897M222.115 63.7222L222.45 63.2897M222.45 63.2897C223.463 61.9829 224.679 61.4678 225.682 61.7805L225.682 61.7806M222.45 63.2897L225.682 61.7806M225.682 61.7806C226.895 62.1584 227.787 63.7504 227.78 65.95L227.779 66.4892M225.682 61.7806L227.779 66.4892M227.779 66.4892L228.317 66.4501M227.779 66.4892L228.317 66.4501M228.317 66.4501C230.642 66.2812 232.427 67.3875 232.757 68.9695L232.757 68.9696M228.317 66.4501L232.757 68.9696M232.757 68.9696C233.118 70.7026 231.685 72.7591 229.197 73.6242L228.78 73.7692M232.757 68.9696L228.78 73.7692M228.78 73.7692L228.872 74.2008M228.78 73.7692L228.872 74.2008M228.872 74.2008C229.233 75.8948 228.88 77.3375 227.999 78.0635L228.872 74.2008ZM221.964 76.1746C223.786 78.8194 226.633 79.8381 228.317 78.4493L221.964 76.1746ZM221.964 76.1746C221.796 75.931 221.642 75.6807 221.503 75.428L221.964 76.1746ZM220.419 61.8325L220.42 61.8297L220.419 61.8325ZM227.999 78.0636C227.328 78.6167 226.393 78.7234 225.361 78.3538C224.326 77.9833 223.238 77.1426 222.376 75.8909L222.376 75.8901C222.217 75.6609 222.072 75.4251 221.941 75.1869L221.741 74.8239L221.347 74.9528C221.195 75.0025 221.039 75.0476 220.88 75.0879C219.496 75.437 218.176 75.3205 217.166 74.8785C216.157 74.4374 215.479 73.687 215.285 72.756L227.999 78.0636Z" fill="url(#paint2_radial_24_161)" stroke="#E84D7E"/>
<path d="M186.13 67.3566L185.64 67.7865C184.492 68.7943 183.955 70.0756 184.195 71.2266L186.13 67.3566ZM186.13 67.3566L185.588 66.9948M186.13 67.3566L185.588 66.9948M185.588 66.9948C184.522 66.2829 183.732 65.3409 183.306 64.3761C182.881 63.4101 182.831 62.4538 183.179 61.6674L183.179 61.6673M185.588 66.9948L183.179 61.6673M183.179 61.6673C183.556 60.8133 184.363 60.2476 185.432 60.0591C186.505 59.87 187.817 60.0706 189.098 60.7431L189.098 60.7432M183.179 61.6673L189.098 60.7432M189.098 60.7432C189.671 61.0439 190.184 61.4112 190.625 61.8204L191.025 62.1929M189.098 60.7432L191.025 62.1929M191.025 62.1929L191.36 61.7604M191.025 62.1929L191.36 61.7604M191.36 61.7604C192.373 60.4536 193.589 59.9385 194.592 60.2512L194.592 60.2513M191.36 61.7604L194.592 60.2513M194.592 60.2513C195.805 60.6291 196.697 62.2211 196.691 64.4207L196.689 64.9599M194.592 60.2513L196.689 64.9599M196.689 64.9599L197.227 64.9208M196.689 64.9599L197.227 64.9208M197.227 64.9208C199.552 64.7519 201.338 65.8582 201.667 67.4402L201.667 67.4403M197.227 64.9208L201.667 67.4403M201.667 67.4403C202.029 69.1733 200.595 71.2298 198.107 72.0949L197.69 72.2399M201.667 67.4403L197.69 72.2399M197.69 72.2399L197.782 72.6715M197.69 72.2399L197.782 72.6715M197.782 72.6715C198.143 74.3655 197.79 75.8082 196.91 76.5342L197.782 72.6715ZM190.875 74.6453C192.697 77.2901 195.543 78.3088 197.228 76.92L190.875 74.6453ZM190.875 74.6453C190.706 74.4017 190.552 74.1514 190.413 73.8987L190.875 74.6453ZM189.329 60.3033L189.331 60.3004L189.329 60.3033ZM196.909 76.5343C196.239 77.0874 195.304 77.1941 194.271 76.8245C193.236 76.454 192.149 75.6133 191.286 74.3616L191.286 74.3609C191.127 74.1316 190.982 73.8958 190.851 73.6576L190.651 73.2946L190.257 73.4235C190.105 73.4732 189.949 73.5183 189.79 73.5586C188.406 73.9077 187.086 73.7912 186.076 73.3492C185.067 72.9081 184.389 72.1577 184.195 71.2267L196.909 76.5343Z" fill="url(#paint3_radial_24_161)" stroke="#E84D7E"/>
<path d="M67.6535 120.693L68.1434 120.263L67.6012 119.901C66.087 118.891 64.9606 117.55 64.3515 116.169C63.7419 114.786 63.6617 113.395 64.1734 112.237L64.1735 112.236C64.7306 110.974 65.9191 110.153 67.4589 109.882C69.0023 109.61 70.8734 109.9 72.6917 110.854L72.6917 110.854C73.5056 111.281 74.2348 111.803 74.8607 112.385L75.2614 112.758L75.5964 112.325C77.0307 110.474 78.8023 109.684 80.3123 110.155L80.3124 110.155C82.1279 110.721 83.3834 113.058 83.3745 116.152L83.373 116.692L83.9108 116.652C87.2025 116.413 89.8162 117.979 90.3035 120.318L90.3035 120.318C90.8356 122.87 88.7304 125.807 85.2157 127.029L84.7989 127.174L84.8909 127.605C85.4017 130.001 84.9144 132.102 83.6079 133.18C82.6059 134.006 81.2255 134.149 79.741 133.617C78.254 133.085 76.7073 131.884 75.4868 130.113L75.4862 130.112C75.2614 129.787 75.0555 129.453 74.8697 129.115L74.6699 128.752L74.2761 128.881C74.06 128.952 73.8382 129.016 73.6125 129.073C71.6472 129.569 69.7632 129.406 68.3109 128.771C66.8608 128.136 65.8633 127.046 65.5772 125.674C65.2243 123.98 66.0185 122.128 67.6535 120.693Z" fill="url(#paint4_radial_24_161)" stroke="#E84D7E"/>
<path d="M280.254 53.4978L279.706 53.9526C278.254 55.1598 277.601 56.6684 277.931 58.004C278.2 59.0913 279.092 59.9707 280.416 60.4762C281.738 60.9808 283.446 61.0892 285.218 60.6509L280.254 53.4978ZM280.254 53.4978L279.64 53.1371M280.254 53.4978L279.64 53.1371M294.326 63.919C293.443 64.6084 292.199 64.7502 290.846 64.3306C289.494 63.9117 288.083 62.9429 286.96 61.5043L286.959 61.5035C286.752 61.2397 286.562 60.9681 286.39 60.6937L286.185 60.3654L285.816 60.4825C285.621 60.5441 285.421 60.6002 285.218 60.6509L294.326 63.919ZM294.326 63.919C295.46 63.0332 295.864 61.3359 295.372 59.3886M294.326 63.919L295.372 59.3886M279.64 53.1371C278.257 52.3239 277.228 51.2374 276.665 50.1204C276.101 49.0038 276.016 47.891 276.444 46.9633L276.444 46.9631M279.64 53.1371L276.444 46.9631M276.444 46.9631C276.912 45.9459 277.953 45.2497 279.348 45.002C280.742 44.7548 282.44 44.9691 284.098 45.7323L284.098 45.7323M276.444 46.9631L284.098 45.7323M284.098 45.7323C284.84 46.0737 285.505 46.4941 286.077 46.9644L286.465 47.2827M284.098 45.7323L286.465 47.2827M286.465 47.2827L286.782 46.8945M286.465 47.2827L286.782 46.8945M286.782 46.8945C288.036 45.3596 289.619 44.6772 290.994 45.046L290.994 45.0461M286.782 46.8945L290.994 45.0461M290.994 45.0461C292.627 45.4834 293.777 47.3666 293.817 49.8899L293.825 50.4242M290.994 45.0461L293.825 50.4242M293.825 50.4242L294.358 50.3804M293.825 50.4242L294.358 50.3804M294.358 50.3804C295.831 50.2592 297.181 50.512 298.213 51.0358C299.243 51.5588 299.931 52.3365 300.162 53.2711L300.162 53.2713M294.358 50.3804L300.162 53.2713M300.162 53.2713C300.412 54.2805 300.105 55.3791 299.311 56.3843C298.517 57.3896 297.257 58.2685 295.698 58.7921L295.259 58.9395M300.162 53.2713L295.259 58.9395M295.259 58.9395L295.372 59.3886M295.259 58.9395L295.372 59.3886" fill="url(#paint5_radial_24_161)" stroke="#E84D7E"/>
<path d="M117.23 65.8636L116.752 65.9363C115.078 66.1916 113.646 66.8688 112.671 67.7545C111.695 68.6405 111.203 69.7035 111.301 70.761L111.301 70.7611C111.398 71.816 112.073 72.7689 113.19 73.4608C114.307 74.1523 115.833 74.5572 117.522 74.5053L118.23 74.4835L118.013 75.158C118.003 75.1894 117.991 75.2216 117.983 75.2437C117.982 75.2483 117.98 75.2525 117.979 75.2562L117.54 75.0994L117.552 75.5048C117.491 75.5067 117.43 75.508 117.37 75.5088C116.312 78.9784 117.329 82.3834 119.74 83.235C122.014 84.0388 124.752 82.2951 126.193 79.2718C126.168 79.255 126.143 79.238 126.118 79.221L126.4 78.808L126.862 78.9998C126.85 79.0275 126.839 79.0552 126.827 79.0828C127.269 79.351 127.746 79.5916 128.253 79.796C131.804 81.231 135.495 80.393 136.491 77.927C137.373 75.7469 135.853 73.0196 133.036 71.4255C132.976 71.4735 132.916 71.5206 132.855 71.5669L132.552 71.169L132.774 70.7208C132.843 70.7549 132.911 70.7896 132.979 70.825C133.131 70.6948 133.282 70.5588 133.429 70.417M117.23 65.8636L116.677 65.442C116.31 62.292 117.571 59.512 119.808 58.913C122.177 58.2781 124.819 60.3065 125.993 63.5254C125.927 63.5961 125.862 63.6674 125.799 63.7392L126.174 64.07L126.653 63.926C126.625 63.8334 126.596 63.7416 126.566 63.6506C126.625 63.5905 126.686 63.531 126.747 63.472C129.506 60.817 133.243 60.217 135.087 62.134C136.931 64.05 136.189 67.762 133.429 70.417M117.23 65.8636L117.174 65.3841C116.999 63.887 117.215 62.5007 117.718 61.4342C118.221 60.369 118.994 59.6486 119.937 59.396L119.937 59.396C120.99 59.1138 122.155 59.4427 123.215 60.3041C124.274 61.1648 125.189 62.5317 125.695 64.214L125.954 65.0749L126.549 64.4008C126.72 64.2068 126.902 64.0168 127.093 63.8326L127.094 63.8323C128.409 62.5667 129.942 61.8064 131.339 61.5822C132.739 61.3576 133.95 61.6735 134.727 62.4806L134.727 62.4807C135.503 63.2875 135.772 64.5103 135.494 65.9003C135.217 67.2879 134.398 68.791 133.083 70.0565M117.23 65.8636L117.54 75.0993M133.429 70.417L133.082 70.0567C133.082 70.0566 133.082 70.0566 133.083 70.0565M133.429 70.417L133.083 70.0565M133.083 70.0565C132.813 70.3156 132.535 70.554 132.249 70.7711L131.607 71.2597L132.33 71.6173C133.818 72.3524 134.957 73.4038 135.611 74.5172C136.266 75.6307 136.42 76.7696 136.028 77.7395L136.027 77.7398C135.608 78.7781 134.602 79.5231 133.22 79.8368C131.839 80.1499 130.133 80.0165 128.44 79.3324L128.44 79.3323C127.799 79.0738 127.209 78.7549 126.682 78.395L126.174 78.0486L125.938 78.6162C125.284 80.1908 124.275 81.4251 123.173 82.1621C122.07 82.8995 120.913 83.1192 119.907 82.7636L119.907 82.7636C118.85 82.3905 118.062 81.4183 117.687 80.0513C117.313 78.6865 117.371 76.9759 117.979 75.2546L117.54 75.0993M117.54 75.0993L117.537 75.005L117.061 74.852C117.057 74.8654 117.053 74.8771 117.045 74.8968C117.043 74.9034 117.04 74.911 117.037 74.9198L117.037 74.9214C117.027 74.95 117.017 74.9785 117.007 75.0071C113.701 74.9308 111.022 73.185 110.803 70.807L117.54 75.0993Z" fill="url(#paint6_radial_24_161)" stroke="#E84D7E"/>
<path d="M205.138 58.0586L204.662 57.9783C202.992 57.6962 201.42 57.8909 200.216 58.4264C199.012 58.9622 198.212 59.8177 197.973 60.8526L197.973 60.8527C197.735 61.885 198.078 63.0014 198.922 64.0084C199.766 65.015 201.089 65.8775 202.708 66.357L203.388 66.5581L202.971 67.1308C202.951 67.1575 202.93 67.1844 202.916 67.2029C202.913 67.2068 202.91 67.2103 202.907 67.2133L202.54 66.9269L202.425 67.3158C202.366 67.2985 202.308 67.2807 202.25 67.2624C200.159 70.2261 200.058 73.7785 202.081 75.3423C203.989 76.8179 207.135 76.0194 209.451 73.5998C209.432 73.576 209.414 73.5521 209.395 73.5281L209.792 73.2241L210.171 73.5509C210.151 73.5736 210.131 73.5963 210.112 73.6188C210.447 74.012 210.825 74.3898 211.243 74.7428C214.165 77.2179 217.933 77.5781 219.651 75.5482C221.172 73.7539 220.583 70.6881 218.407 68.2917C218.335 68.3185 218.263 68.3443 218.19 68.3692L218.027 67.8965L218.378 67.5402C218.433 67.5942 218.487 67.6486 218.54 67.7034C218.726 67.6276 218.911 67.5454 219.096 67.457M205.138 58.0586L204.745 57.4852C205.383 54.3788 207.452 52.1337 209.764 52.2655C212.212 52.4046 214.086 55.1584 214.193 58.583C214.108 58.6296 214.024 58.677 213.941 58.7254L214.194 59.157L214.694 59.1702C214.696 59.0735 214.698 58.9772 214.697 58.8813C214.773 58.8429 214.849 58.8053 214.925 58.7685C218.377 57.1113 222.114 57.712 223.265 60.1101C224.416 62.5073 222.549 65.8001 219.096 67.457M205.138 58.0586L205.235 57.5858C205.538 56.1094 206.177 54.8605 206.989 54.0053C207.8 53.151 208.76 52.7091 209.735 52.7647L209.735 52.7647C210.824 52.8265 211.827 53.5036 212.563 54.6537C213.299 55.8027 213.741 57.3876 213.694 59.1437L213.67 60.0424L214.446 59.5886C214.67 59.4579 214.902 59.3343 215.141 59.2195L215.142 59.2193C216.787 58.4293 218.482 58.1875 219.879 58.4122C221.278 58.6373 222.329 59.3167 222.814 60.3265L222.814 60.3266C223.299 61.3359 223.171 62.5815 222.472 63.8145C221.774 65.0453 220.525 66.2164 218.88 67.0061M205.138 58.0586L202.54 66.9268M219.096 67.457L218.88 67.0062C218.88 67.0062 218.88 67.0062 218.88 67.0061M219.096 67.457L218.88 67.0061M218.88 67.0061C218.543 67.1677 218.204 67.307 217.865 67.4237L217.102 67.6866L217.677 68.2528C218.859 69.4168 219.611 70.772 219.884 72.0343C220.157 73.2968 219.946 74.4267 219.27 75.225L219.27 75.2252C218.546 76.0799 217.357 76.4722 215.946 76.3371C214.538 76.2023 212.959 75.541 211.566 74.3612L211.565 74.3609C211.037 73.9146 210.578 73.4272 210.189 72.9201L209.816 72.4321L209.414 72.8974C208.3 74.1879 206.954 75.0439 205.677 75.3986C204.399 75.7535 203.231 75.5996 202.387 74.9468L202.387 74.9467C201.501 74.2616 201.056 73.0913 201.129 71.6758C201.201 70.2626 201.792 68.6562 202.908 67.212L202.54 66.9268M202.54 66.9268L202.566 66.8364L202.162 66.542C202.154 66.5534 202.146 66.5631 202.133 66.5796C202.129 66.5852 202.124 66.5915 202.118 66.5989L202.117 66.6003C202.099 66.6242 202.08 66.6482 202.062 66.6723C198.947 65.5645 196.95 63.0675 197.486 60.7404L202.54 66.9268Z" fill="url(#paint7_radial_24_161)" stroke="#E84D7E"/>
<path d="M77.369 102.505L76.9026 102.658C74.7836 103.354 73.0665 104.509 71.9859 105.817C70.9038 107.128 70.4912 108.545 70.8488 109.82L70.8488 109.82C71.2059 111.093 72.2995 112.109 73.913 112.699C75.523 113.288 77.5981 113.429 79.779 112.977L80.4858 112.831L80.3743 113.544C80.3684 113.582 80.3607 113.622 80.3552 113.65C80.3541 113.656 80.353 113.662 80.352 113.667L79.904 113.581L79.9817 113.956C79.9176 113.97 79.8537 113.982 79.7897 113.995C79.1217 118.447 81.1547 122.366 84.45 122.846C87.5623 123.3 90.7273 120.528 91.9037 116.509C91.8834 116.501 91.8631 116.492 91.843 116.484L92.0348 116.022L92.5203 116.142C92.515 116.163 92.5096 116.185 92.5042 116.206C93.1664 116.45 93.8736 116.648 94.617 116.788C99.4678 117.705 104.015 115.863 104.766 112.677C105.438 109.829 102.85 106.866 98.8298 105.615C98.7682 105.68 98.7061 105.745 98.6434 105.809L98.2865 105.458L98.4144 104.975C98.5012 104.998 98.5875 105.022 98.6731 105.046C98.8713 104.825 99.0635 104.595 99.2494 104.357M77.369 102.505L76.7466 102.183C75.6072 98.4855 76.6305 94.8627 79.3669 93.6366C82.2975 92.3227 86.1644 94.2152 88.3388 97.8935C88.2897 97.9653 88.2416 98.0373 88.1943 98.1094L88.6126 98.3833L89.0548 98.1499C89.0141 98.0728 88.9727 97.9963 88.9306 97.9205C89.0235 97.7914 89.1197 97.663 89.219 97.5357C92.1866 93.7233 96.843 92.1559 99.6112 94.0389C102.379 95.9206 102.218 100.544 99.2494 104.357M77.369 102.505L77.2245 102.036C76.1216 98.4569 77.166 95.1707 79.5714 94.0929L79.5715 94.0928C80.9275 93.4849 82.5488 93.6334 84.1162 94.4412C85.6824 95.2485 87.1586 96.6999 88.1705 98.6168L88.5663 99.3667L89.0309 98.6573C89.2106 98.3828 89.4046 98.1107 89.6133 97.8432L89.6136 97.8428C91.0426 96.007 92.8695 94.7244 94.6494 94.1254C96.4347 93.5246 98.1151 93.6259 99.3299 94.4523L99.33 94.4524C100.536 95.272 101.143 96.7113 101.082 98.4564C101.021 100.203 100.285 102.213 98.855 104.05M77.369 102.505L79.904 113.581L80.3523 113.665C79.9368 115.884 80.2275 117.967 81.0042 119.536C81.7802 121.104 83.0219 122.133 84.522 122.351L84.5221 122.351C85.9564 122.56 87.4453 122.003 88.7251 120.845C90.0039 119.688 91.0434 117.955 91.5493 115.903L91.6888 115.337L92.2267 115.561C92.9884 115.877 93.8215 116.13 94.7094 116.297L94.7099 116.297C97.052 116.74 99.3029 116.512 101.041 115.808C102.786 115.101 103.953 113.945 104.279 112.562L104.279 112.562C104.582 111.278 104.131 109.922 103.042 108.717C101.951 107.511 100.246 106.494 98.1586 105.942L97.3276 105.722L97.9296 105.108C98.2528 104.779 98.562 104.426 98.855 104.05M99.2494 104.357L98.855 104.05M99.2494 104.357L98.8549 104.05C98.8549 104.05 98.855 104.05 98.855 104.05" fill="url(#paint8_radial_24_161)" stroke="#E84D7E"/>
<path d="M388.428 22.8482L387.962 23.0014C386.506 23.4798 385.335 24.272 384.602 25.1607C383.868 26.0512 383.606 26.992 383.838 27.8215L383.838 27.8216C384.071 28.651 384.787 29.332 385.884 29.7341C386.977 30.1349 388.395 30.2339 389.893 29.9237L390.6 29.7774L390.489 30.4902C390.484 30.5201 390.478 30.5512 390.474 30.5707C390.474 30.5746 390.473 30.5781 390.472 30.581L390.011 30.4933L390.096 30.9029C390.034 30.9158 389.972 30.9281 389.91 30.9397C389.515 33.9855 390.925 36.6391 393.185 36.9694C395.319 37.2817 397.488 35.4171 398.34 32.6871C398.321 32.6794 398.302 32.6715 398.283 32.6636L398.475 32.202L398.961 32.3214C398.956 32.3417 398.951 32.3619 398.946 32.3821C399.366 32.5295 399.811 32.65 400.277 32.7379C403.662 33.3801 406.833 32.0933 407.357 29.8669C407.816 27.9144 406.086 25.8839 403.372 24.9807C403.313 25.0449 403.253 25.1081 403.192 25.1701L402.835 24.8203L402.963 24.337C403.047 24.3594 403.131 24.3828 403.214 24.4073C403.314 24.2917 403.411 24.1728 403.506 24.0507C405.577 21.3867 405.688 18.1552 403.756 16.8394C401.825 15.5228 398.576 16.6172 396.507 19.281C396.472 19.3258 396.437 19.3708 396.404 19.416C396.445 19.4898 396.486 19.5646 396.526 19.6402L396.084 19.8733L395.665 19.5998C395.711 19.5294 395.758 19.4592 395.807 19.3892C394.275 16.9113 391.638 15.6531 389.632 16.5537C387.723 17.41 387.01 19.9418 387.806 22.5264L388.428 22.8482ZM388.428 22.8482L388.284 22.3793M388.428 22.8482L388.284 22.3793M388.284 22.3793C387.524 19.9126 388.259 17.7176 389.837 17.0099L389.837 17.0099M388.284 22.3793L389.837 17.0099M389.837 17.0099C390.73 16.6089 391.812 16.7011 392.876 17.2508C393.939 17.7999 394.948 18.7911 395.641 20.1065L396.038 20.858M389.837 17.0099L396.038 20.858M396.038 20.858L396.502 20.1468M396.038 20.858L396.502 20.1468M396.502 20.1468C396.625 19.9585 396.758 19.7717 396.901 19.5882L396.901 19.5878M396.502 20.1468L396.901 19.5878M396.901 19.5878C397.882 18.3263 399.132 17.4492 400.343 17.0414C401.559 16.6317 402.678 16.7096 403.475 17.2526L403.475 17.2526M396.901 19.5878L403.475 17.2526M403.475 17.2526C404.262 17.7892 404.673 18.7391 404.632 19.9222M403.475 17.2526L404.632 19.9222M404.632 19.9222C404.591 21.1067 404.092 22.4816 403.111 23.7437L404.632 19.9222ZM390.473 30.5793L390.011 30.4931L403.111 23.7438C402.91 24.002 402.699 24.2445 402.477 24.4704L401.877 25.0835L402.706 25.3035C404.14 25.6839 405.302 26.382 406.04 27.1997C406.778 28.0166 407.067 28.916 406.87 29.7523L406.87 29.7525C406.658 30.6555 405.891 31.4326 404.702 31.9148C403.519 32.3944 401.979 32.5519 400.37 32.2466L400.37 32.2465C399.76 32.1315 399.189 31.9578 398.667 31.7405L398.129 31.5162L397.99 32.0827C397.644 33.491 396.933 34.6747 396.066 35.4606C395.197 36.2474 394.202 36.6129 393.257 36.4747L393.257 36.4747C392.271 36.3306 391.441 35.6517 390.916 34.5887C390.39 33.5242 390.188 32.1022 390.473 30.5793Z" fill="url(#paint9_radial_24_161)" stroke="#E84D7E"/>
<path d="M335.693 43.6984L335.239 43.8538C333.54 44.435 332.172 45.4216 331.319 46.5491C330.465 47.6767 330.146 48.9123 330.452 50.0388L330.452 50.0389C330.757 51.1622 331.653 52.0584 332.951 52.59C334.25 53.1217 335.92 53.2705 337.671 52.9034L338.36 52.7588L338.269 53.4574C338.265 53.4917 338.259 53.527 338.255 53.552C338.254 53.5574 338.253 53.5623 338.253 53.5666L337.794 53.4921L337.876 53.8821C337.817 53.8945 337.758 53.9063 337.699 53.9177C337.234 57.8199 338.938 61.2766 341.618 61.7393C344.146 62.1762 346.678 59.7991 347.602 56.2982C347.571 56.2844 347.541 56.2705 347.511 56.2565L347.72 55.8026L348.209 55.9074C348.202 55.9399 348.195 55.9723 348.188 56.0047C348.707 56.2136 349.259 56.3855 349.836 56.5117C353.805 57.3829 357.491 55.8109 358.064 53.0045C358.574 50.514 356.46 47.8835 353.206 46.714C353.158 46.7696 353.109 46.8246 353.06 46.8789L352.689 46.5436L352.833 46.0648C352.903 46.086 352.973 46.1078 353.043 46.1303C353.186 45.954 353.326 45.7712 353.461 45.5821M335.693 43.6984L335.077 43.3807C334.101 40.0982 334.891 36.909 337.108 35.8594C339.464 34.7433 342.611 36.4288 344.437 39.6575C344.383 39.7427 344.331 39.8282 344.28 39.914L344.709 40.1699L345.157 39.9472C345.112 39.857 345.066 39.7678 345.019 39.6796C345.076 39.5954 345.134 39.5115 345.193 39.4282C347.567 36.0956 351.346 34.7682 353.627 36.4669C355.909 38.1646 355.835 42.2493 353.461 45.5821M335.693 43.6984L335.556 43.2383C335.09 41.6704 335.053 40.1467 335.379 38.9101C335.704 37.6739 336.38 36.7572 337.322 36.3113L337.322 36.3112C338.372 35.8138 339.654 35.9499 340.926 36.6742C342.197 37.3978 343.414 38.689 344.262 40.3926L344.67 41.213L345.139 40.4258C345.281 40.1871 345.435 39.9507 345.6 39.7187L345.601 39.7183C346.736 38.1246 348.194 37.0302 349.61 36.5326C351.028 36.0347 352.358 36.145 353.329 36.868L353.329 36.8681C354.303 37.5928 354.818 38.8604 354.79 40.4022C354.762 41.9406 354.189 43.6985 353.053 45.2919M335.693 43.6984L353.053 45.2919M353.461 45.5821L353.053 45.2919M353.461 45.5821L353.054 45.2918C353.053 45.2918 353.053 45.2919 353.053 45.2919M353.053 45.2919C352.821 45.6181 352.575 45.924 352.318 46.2083L351.788 46.7947L352.545 47.0224C354.236 47.531 355.626 48.442 356.523 49.5125C357.421 50.5833 357.804 51.7815 357.574 52.9042L357.574 52.9045C357.329 54.1042 356.411 55.0876 355.028 55.6772C353.645 56.2665 351.839 56.4394 349.944 56.0233L349.943 56.0232C349.225 55.8663 348.549 55.6352 347.93 55.3488L347.363 55.0862L347.232 55.6979C346.845 57.5011 346.023 59.0068 345.009 59.9985C343.995 60.9905 342.825 61.4405 341.703 61.2466L341.703 61.2466C340.523 61.0429 339.509 60.1458 338.856 58.7496C338.205 57.3568 337.942 55.5163 338.253 53.5649L337.794 53.492L353.053 45.2919Z" fill="url(#paint10_radial_24_161)" stroke="#E84D7E"/>
<path d="M256.395 60.3918L255.941 60.5472C254.496 61.0423 253.335 61.8823 252.612 62.8387C251.89 63.7952 251.625 64.8355 251.882 65.7783L251.882 65.7784C252.137 66.7184 252.886 67.4748 253.986 67.9261C255.085 68.3774 256.503 68.5057 257.993 68.1931L258.682 68.0486L258.592 68.7468C258.588 68.7777 258.582 68.8096 258.579 68.831C258.578 68.8355 258.578 68.8394 258.577 68.8429L258.114 68.7679L258.199 69.1719C258.14 69.1841 258.082 69.1957 258.024 69.2068C257.656 72.5314 259.114 75.4636 261.397 75.8594C263.55 76.2329 265.704 74.2241 266.511 71.2525C266.481 71.2388 266.451 71.225 266.421 71.2111L266.631 70.7575L267.12 70.8618C267.113 70.8939 267.106 70.926 267.099 70.9579C267.525 71.1257 267.976 71.2645 268.447 71.3677C271.852 72.118 275.014 70.7677 275.505 68.3552C275.937 66.2324 274.157 63.9905 271.405 62.9715C271.358 63.0264 271.31 63.0805 271.262 63.1339L270.891 62.799L271.035 62.3203C271.104 62.3412 271.173 62.3628 271.242 62.3852C271.348 62.2518 271.452 62.1143 271.553 61.9726C273.589 59.1081 273.651 55.5965 271.693 54.1363C269.735 52.6752 266.493 53.8151 264.457 56.6794C264.422 56.7291 264.387 56.7789 264.353 56.829C264.4 56.9164 264.446 57.0048 264.49 57.0944L264.042 57.3169L263.613 57.0614C263.663 56.9763 263.715 56.8914 263.769 56.8068C262.196 54.0759 259.523 52.658 257.519 53.6087C255.617 54.5104 254.941 57.2519 255.779 60.0742L256.395 60.3918ZM256.395 60.3918L256.258 59.9319C255.861 58.594 255.83 57.2971 256.105 56.2482C256.38 55.1997 256.949 54.4322 257.733 54.0605L257.733 54.0604C258.607 53.6461 259.681 53.7559 260.76 54.3712C261.837 54.9858 262.872 56.0849 263.595 57.5394L264.003 58.3616L264.472 57.5724C264.593 57.3688 264.724 57.1672 264.865 56.9694L264.865 56.969C265.831 55.6096 267.07 54.6792 268.27 54.2575C269.47 53.8355 270.584 53.933 271.394 54.537L271.394 54.5371C272.206 55.143 272.644 56.2082 272.62 57.5189C272.597 58.8259 272.111 60.3235 271.145 61.6827C270.947 61.9609 270.738 62.2217 270.519 62.464L269.991 63.0498L270.746 63.2777C272.186 63.7119 273.366 64.4886 274.127 65.3974C274.888 66.3066 275.206 67.316 275.015 68.2553L275.015 68.2555C274.811 69.2585 274.043 70.0878 272.872 70.5876C271.702 71.0872 270.168 71.235 268.554 70.8794L268.554 70.8793C267.943 70.7453 267.368 70.5481 266.841 70.3039L266.273 70.0402L266.142 70.6531C265.814 72.1919 265.114 73.4731 264.256 74.3142C263.398 75.1556 262.416 75.5287 261.482 75.3667L261.482 75.3667C260.5 75.1964 259.645 74.4458 259.091 73.2586C258.538 72.075 258.313 70.5067 258.577 68.8413L258.114 68.7678L256.395 60.3918Z" fill="url(#paint11_radial_24_161)" stroke="#E84D7E"/>
<path d="M304.819 66.8857L304.366 67.0414C303.126 67.4674 302.133 68.1906 301.517 69.0113C300.901 69.832 300.681 70.7184 300.897 71.5173L300.897 71.5173C301.113 72.3136 301.746 72.9599 302.684 73.348C303.623 73.7364 304.837 73.849 306.116 73.5806L306.804 73.4362L306.715 74.1334C306.711 74.1615 306.706 74.1907 306.703 74.2092C306.703 74.213 306.702 74.2163 306.702 74.219L306.234 74.1442L306.321 74.5593C306.264 74.5713 306.207 74.5827 306.15 74.5934C305.86 77.4618 307.122 79.9811 309.085 80.3252C310.935 80.6498 312.784 78.933 313.494 76.38C313.463 76.3662 313.433 76.3523 313.403 76.3382L313.615 75.8852L314.104 75.9885C314.097 76.0207 314.09 76.0528 314.083 76.0848C314.434 76.2204 314.803 76.3332 315.188 76.4184C318.139 77.0751 320.877 75.9015 321.3 73.8002C321.669 71.9682 320.157 70.0322 317.809 69.131C317.763 69.1847 317.717 69.2375 317.67 69.2895L317.298 68.9557L317.443 68.4773C317.511 68.4979 317.578 68.5192 317.644 68.5413C317.721 68.4422 317.797 68.3406 317.87 68.2363M304.819 66.8857L304.204 66.5685C303.475 64.109 304.059 61.7213 305.706 60.9374C307.425 60.1184 309.716 61.3265 311.086 63.665C311.032 63.7495 310.98 63.8344 310.93 63.9195L311.36 64.1737L311.808 63.952C311.764 63.8624 311.718 63.7741 311.671 63.687C311.687 63.6642 311.703 63.6414 311.719 63.6187C313.48 61.1252 316.287 60.135 317.985 61.4096C319.682 62.6835 319.632 65.7427 317.87 68.2363M304.819 66.8857L304.683 66.4265C304.341 65.2695 304.314 64.1512 304.548 63.2505C304.782 62.3498 305.265 61.701 305.921 61.3889L305.921 61.3888C306.65 61.0412 307.557 61.1303 308.479 61.66C309.4 62.189 310.289 63.1371 310.912 64.3955L311.321 65.2228L311.791 64.4279C311.894 64.2521 312.007 64.0782 312.127 63.9075L312.128 63.9071C312.956 62.7332 314.018 61.9336 315.042 61.5727C316.066 61.2116 317.005 61.2995 317.685 61.8095L317.685 61.8096C318.368 62.3222 318.744 63.2283 318.725 64.3572C318.706 65.4822 318.291 66.7742 317.462 67.9479M304.819 66.8857L317.462 67.9479M317.87 68.2363L317.462 67.9479M317.87 68.2363L317.462 67.9477C317.462 67.9478 317.462 67.9478 317.462 67.9479M317.462 67.9479C317.292 68.188 317.113 68.413 316.926 68.6218L316.402 69.2057L317.152 69.434C318.389 69.8102 319.401 70.4813 320.051 71.2629C320.702 72.0451 320.97 72.9062 320.81 73.7014L320.81 73.7016C320.639 74.5495 319.994 75.2561 318.995 75.684C317.997 76.1117 316.683 76.2388 315.297 75.9304L315.296 75.9303C314.772 75.8141 314.278 75.6434 313.826 75.4322L313.256 75.1656L313.125 75.7819C312.844 77.1121 312.245 78.2154 311.513 78.9369C310.781 79.6586 309.952 79.9698 309.171 79.8327L309.171 79.8327C308.348 79.6885 307.622 79.0536 307.146 78.0304C306.672 77.0112 306.476 75.6574 306.702 74.2174L306.234 74.1441M317.462 67.9479L306.234 74.1441M306.234 74.1441L306.219 74.0699L305.723 74.0064C305.722 74.0162 305.72 74.0244 305.718 74.0402C305.717 74.046 305.716 74.0528 305.714 74.061L305.714 74.0627C305.709 74.0952 305.704 74.1277 305.699 74.1601C303.174 74.5073 300.913 73.4863 300.415 71.6481L306.234 74.1441Z" fill="url(#paint12_radial_24_161)" stroke="#E84D7E"/>
<path d="M384.361 64.8722C385.432 65.8308 385.766 67.0888 385.658 68.3263C385.548 69.5786 384.986 70.7719 384.321 71.515C383.702 72.2079 382.496 72.7185 381.113 72.7799C379.744 72.8407 378.291 72.4557 377.195 71.4757C376.109 70.5044 375.354 68.6198 375.065 66.7109C374.923 65.7687 374.9 64.8537 374.997 64.0875C375.095 63.305 375.309 62.7474 375.577 62.4479C375.809 62.188 376.265 62.0086 376.982 61.9871C377.684 61.966 378.543 62.1 379.457 62.3572C381.289 62.8734 383.219 63.8511 384.361 64.8722Z" fill="url(#paint13_radial_24_161)" stroke="#E84D7E"/>
<path d="M101.356 86.3229C100.711 85.0379 100.863 83.7452 101.418 82.6338C101.979 81.5091 102.94 80.6055 103.831 80.1583C104.662 79.7413 105.971 79.7089 107.28 80.1596C108.576 80.6056 109.786 81.497 110.445 82.8107C111.099 84.1127 111.11 86.1432 110.677 88.0247C110.464 88.9534 110.149 89.8129 109.779 90.4902C109.4 91.1821 108.996 91.6222 108.637 91.8025C108.325 91.9589 107.836 91.9585 107.16 91.7151C106.5 91.4772 105.75 91.0371 104.995 90.4625C103.479 89.3096 102.043 87.6918 101.356 86.3229Z" fill="url(#paint14_radial_24_161)" stroke="#E84D7E"/>
<path d="M395.956 45.7851L395.649 45.6446C394.868 45.2873 394.114 45.2575 393.494 45.552L395.956 45.7851ZM395.956 45.7851L396.201 45.5523M395.956 45.7851L396.201 45.5523M396.201 45.5523C396.999 44.7942 397.909 44.3366 398.722 44.1924C399.538 44.0475 400.197 44.2228 400.605 44.6385L400.605 44.6386M396.201 45.5523L400.605 44.6386M400.605 44.6386C401.018 45.0601 401.18 45.7363 401.008 46.5649C400.836 47.3894 400.34 48.3048 399.538 49.0913L399.537 49.0926M400.605 44.6386L399.537 49.0926M399.537 49.0926C399.368 49.2592 399.191 49.4125 399.009 49.5535L398.766 49.742M399.537 49.0926L398.766 49.742M398.766 49.742L398.824 50.0438M398.766 49.742L398.824 50.0438M398.824 50.0438C399.192 51.9401 398.601 53.473 397.507 53.994C396.801 54.3293 395.917 54.2439 395.024 53.7328C394.134 53.2229 393.281 52.3097 392.706 51.1007L392.706 51.1007M398.824 50.0438L392.706 51.1007M392.706 51.1007C392.132 49.8922 391.962 48.6542 392.129 47.6416M392.706 51.1007L392.129 47.6416M392.129 47.6416C392.296 46.6268 392.788 45.8878 393.494 45.5521L392.129 47.6416Z" fill="#E84D7E" stroke="#E84D7E"/>
<path d="M328.546 65.217L328.27 65.4129C327.57 65.9109 327.168 66.5485 327.113 67.233L328.546 65.217ZM328.546 65.217L328.467 64.8884M328.546 65.217L328.467 64.8884M328.467 64.8884C328.209 63.8186 328.268 62.8014 328.549 62.0257C328.832 61.2467 329.313 60.7634 329.877 60.6181L329.877 60.6181M328.467 64.8884L329.877 60.6181M329.877 60.6181C330.449 60.4706 331.115 60.6688 331.747 61.2324C332.375 61.7932 332.92 62.6806 333.2 63.7684L333.2 63.7702M329.877 60.6181L333.2 63.7702M333.2 63.7702C333.26 63.9996 333.304 64.2297 333.336 64.4577L333.377 64.7624M333.2 63.7702L333.377 64.7624M333.377 64.7624L333.668 64.8626M333.377 64.7624L333.668 64.8626M333.668 64.8626C335.494 65.4921 336.526 66.7702 336.43 67.9789L333.668 64.8626ZM331.524 70.6894L331.524 70.6894C332.859 70.7963 334.076 70.5143 334.963 69.998C335.852 69.4805 336.367 68.7582 336.43 67.9792L331.524 70.6894ZM331.524 70.6894C330.19 70.5828 329.033 70.1108 328.24 69.4599M331.524 70.6894L328.24 69.4599M328.24 69.4599C327.445 68.8075 327.05 68.0123 327.113 67.2332L328.24 69.4599Z" fill="#E84D7E" stroke="#E84D7E"/>
<path d="M398.212 42.2662C399.178 41.9267 400.078 42.148 400.821 42.6461C401.577 43.1524 402.138 43.9262 402.375 44.6018C402.59 45.2137 402.501 46.1484 402.054 47.0542C401.613 47.9471 400.862 48.7307 399.866 49.081C398.882 49.4268 397.413 49.2538 396.074 48.7603C395.416 48.5178 394.82 48.209 394.366 47.8788C393.898 47.539 393.635 47.2179 393.548 46.9713C393.479 46.7749 393.508 46.4522 393.746 45.9874C393.976 45.5369 394.363 45.0339 394.854 44.5352C395.841 43.5334 397.157 42.6369 398.212 42.2662Z" fill="#E54376" stroke="#E84D7E"/>
<path d="M326.626 61.5043C326.815 60.4979 327.457 59.8289 328.26 59.4341C329.076 59.0326 330.026 58.9343 330.73 59.0664C331.368 59.1861 332.133 59.7305 332.694 60.5707C333.246 61.399 333.55 62.4411 333.355 63.4791C333.162 64.5042 332.278 65.6899 331.181 66.6029C330.642 67.0516 330.077 67.4125 329.564 67.6412C329.035 67.8767 328.626 67.9436 328.369 67.8954C328.164 67.857 327.899 67.6709 327.616 67.2324C327.341 66.8075 327.099 66.2208 326.912 65.5463C326.538 64.1913 326.42 62.6029 326.626 61.5043Z" fill="#E54376" stroke="#E84D7E"/>
<path d="M394.795 70.69C396.324 72.0578 396.504 74.2209 395.349 75.5121C394.194 76.8034 392.024 76.8649 390.495 75.4971C389.675 74.7632 388.602 73.5686 387.908 72.3882C387.561 71.7964 387.327 71.2397 387.25 70.7667C387.175 70.3016 387.257 69.9718 387.467 69.7369C387.698 69.4794 388.13 69.2779 388.765 69.1806C389.388 69.0852 390.139 69.1009 390.919 69.2113C392.501 69.4353 394.053 70.0255 394.795 70.69Z" fill="url(#paint15_radial_24_161)" stroke="#E84D7E"/>
<path d="M157.978 99.3081C159.507 100.676 159.687 102.839 158.532 104.13C157.376 105.422 155.207 105.483 153.678 104.115C152.857 103.381 151.785 102.187 151.091 101.006C150.743 100.415 150.51 99.8578 150.433 99.3849C150.358 98.9197 150.44 98.59 150.65 98.3551C150.88 98.0975 151.312 97.8961 151.948 97.7988C152.571 97.7034 153.322 97.7191 154.101 97.8295C155.683 98.0534 157.235 98.6437 157.978 99.3081Z" fill="url(#paint16_radial_24_161)" stroke="#E84D7E"/>
<path d="M381.426 64.3941C381.29 61.9601 383.147 59.8769 385.567 59.7414C387.986 59.6059 390.064 61.4687 390.201 63.9026C390.273 65.1943 390.063 66.7974 389.524 68.0773C388.978 69.3715 388.168 70.1917 387.104 70.2512C385.977 70.3144 384.598 69.5393 383.438 68.3147C382.287 67.0987 381.493 65.5854 381.426 64.3941Z" fill="url(#paint17_radial_24_161)" stroke="#E84D7E"/>
<path fill-rule="evenodd" clip-rule="evenodd" d="M155.232 105.787C154.805 108.465 152.293 110.294 149.626 109.87C146.958 109.445 145.139 106.925 145.565 104.247C145.992 101.568 147.844 97.8604 150.511 98.2853C153.179 98.7101 155.658 103.108 155.232 105.787Z" fill="url(#paint18_radial_24_161)" stroke="#E84D7E" stroke-miterlimit="1.5" stroke-linecap="round" stroke-linejoin="round"/>
<path fill-rule="evenodd" clip-rule="evenodd" d="M163.221 57.5625C164.598 56.1857 166.829 56.1811 168.2 57.5524C169.571 58.9236 169.567 61.1548 168.19 62.5316C166.813 63.9086 164.174 65.2833 162.803 63.9119C161.431 62.5407 161.844 58.9394 163.221 57.5625Z" fill="url(#paint19_radial_24_161)" stroke="#E84D7E" stroke-miterlimit="1.5" stroke-linecap="round" stroke-linejoin="round"/>
<path fill-rule="evenodd" clip-rule="evenodd" d="M154.989 61.654C154.893 59.7092 156.387 58.0527 158.324 57.9571C160.261 57.8614 161.911 59.3627 162.007 61.3074C162.104 63.2524 161.351 66.1311 159.414 66.2268C157.477 66.3224 155.085 63.5989 154.989 61.654Z" fill="url(#paint20_radial_24_161)" stroke="#E84D7E" stroke-miterlimit="1.5" stroke-linecap="round" stroke-linejoin="round"/>
<path fill-rule="evenodd" clip-rule="evenodd" d="M169.999 67.2152C171.251 66.8796 172.539 67.6199 172.874 68.8673C173.208 70.1147 172.462 71.4001 171.21 71.7357C169.957 72.0713 167.978 71.9854 167.643 70.7379C167.309 69.4905 168.746 67.5509 169.999 67.2152Z" fill="url(#paint21_radial_24_161)" stroke="#E84D7E" stroke-miterlimit="1.5" stroke-linecap="round" stroke-linejoin="round"/>
<path fill-rule="evenodd" clip-rule="evenodd" d="M158.861 54.5799C159.197 53.3274 160.482 52.5819 161.729 52.9162C162.977 53.2504 163.717 54.5387 163.381 55.7912C163.046 57.0438 161.982 58.7154 160.734 58.3811C159.487 58.0468 158.525 55.8326 158.861 54.5799Z" fill="url(#paint22_radial_24_161)" stroke="#E84D7E" stroke-miterlimit="1.5" stroke-linecap="round" stroke-linejoin="round"/>
<path d="M399.593 40.9018C400.007 41.3239 400.169 41.9999 399.997 42.8281C399.825 43.6524 399.329 44.5678 398.527 45.3551C397.724 46.1424 396.8 46.621 395.972 46.7767C395.141 46.9331 394.468 46.7586 394.054 46.3365C393.64 45.9143 393.478 45.2383 393.65 44.4101C393.822 43.5858 394.318 42.6704 395.12 41.8832C395.923 41.0959 396.847 40.6172 397.675 40.4616C398.506 40.3051 399.179 40.4796 399.593 40.9018Z" fill="#FE8AB4" stroke="#E84D7E"/>
<path d="M326.135 59.6269C326.708 59.4793 327.374 59.6773 328.005 60.2406C328.633 60.8012 329.178 61.6886 329.458 62.7772C329.739 63.8658 329.691 64.9058 329.412 65.7003C329.132 66.4984 328.644 66.9938 328.072 67.1415C327.499 67.2891 326.833 67.091 326.202 66.5278C325.574 65.9671 325.029 65.0798 324.748 63.9912C324.468 62.9026 324.516 61.8625 324.794 61.0681C325.075 60.2699 325.562 59.7745 326.135 59.6269Z" fill="#FE8AB4" stroke="#E84D7E"/>
<path d="M398.497 57.3463C398.424 57.4406 398.281 57.5322 398.003 57.5633C397.724 57.5946 397.351 57.5576 396.9 57.4328C396.001 57.1838 394.892 56.6134 393.804 55.7654C392.716 54.9173 391.892 53.9809 391.432 53.1699C391.2 52.7633 391.074 52.4107 391.036 52.1321C390.998 51.8557 391.052 51.6946 391.126 51.6003C391.199 51.506 391.342 51.4144 391.619 51.3833C391.899 51.3519 392.272 51.389 392.722 51.5138C393.621 51.7627 394.731 52.3331 395.819 53.1812C396.907 54.0292 397.73 54.9657 398.191 55.7767C398.422 56.1832 398.549 56.5358 398.587 56.8145C398.625 57.0908 398.571 57.2519 398.497 57.3463Z" fill="#FE8AB4" stroke="#E84D7E"/>
<path d="M339.828 68.7976C339.873 68.9085 339.881 69.0782 339.769 69.3337C339.657 69.5914 339.438 69.8958 339.105 70.2237C338.44 70.8778 337.391 71.5532 336.113 72.0714C334.834 72.5895 333.612 72.8348 332.679 72.8284C332.211 72.8252 331.842 72.7589 331.582 72.6523C331.324 72.5466 331.211 72.4193 331.167 72.3085C331.122 72.1977 331.114 72.028 331.225 71.7724C331.338 71.5147 331.557 71.2103 331.89 70.8824C332.555 70.2284 333.604 69.553 334.882 69.0348C336.16 68.5166 337.383 68.2713 338.316 68.2777C338.784 68.2809 339.153 68.3472 339.413 68.4538C339.671 68.5596 339.783 68.6868 339.828 68.7976Z" fill="#FE8AB4" stroke="#E84D7E"/>
<path d="M394.908 48.3839C395.546 45.5988 394.9 43.075 393.465 42.7468C392.031 42.4187 390.352 44.4104 389.714 47.1954C389.077 49.9805 389.723 52.5043 391.158 52.8325C392.592 53.1607 394.271 51.169 394.908 48.3839Z" fill="#FE8AB4" stroke="#E84D7E" stroke-miterlimit="1.5" stroke-linecap="round" stroke-linejoin="round"/>
<path d="M330.273 67.425C328.179 65.4805 325.67 64.7782 324.669 65.8562C323.668 66.9343 324.553 69.3845 326.646 71.3289C328.74 73.2733 331.248 73.9757 332.25 72.8976C333.251 71.8196 332.366 69.3694 330.273 67.425Z" fill="#FE8AB4" stroke="#E84D7E" stroke-miterlimit="1.5" stroke-linecap="round" stroke-linejoin="round"/>
<defs>
<linearGradient id="paint0_linear_24_161" x1="241" y1="85.6167" x2="237" y2="67.6167" gradientUnits="userSpaceOnUse">
<stop stop-color="#444746"/>
<stop offset="1" stop-color="#605A5B"/>
</linearGradient>
<radialGradient id="paint1_radial_24_161" cx="0" cy="0" r="1" gradientUnits="userSpaceOnUse" gradientTransform="translate(136.618 105.518) rotate(90) scale(10.331 12.5368)">
<stop stop-color="#EE8DB4"/>
<stop offset="1" stop-color="#FC548E"/>
</radialGradient>
<radialGradient id="paint2_radial_24_161" cx="0" cy="0" r="1" gradientUnits="userSpaceOnUse" gradientTransform="translate(223.372 70.0702) rotate(90.9817) scale(8.94532 9.93121)">
<stop stop-color="#EE8DB4"/>
<stop offset="1" stop-color="#FC548E"/>
</radialGradient>
<radialGradient id="paint3_radial_24_161" cx="0" cy="0" r="1" gradientUnits="userSpaceOnUse" gradientTransform="translate(192.282 68.5409) rotate(90.9817) scale(8.94532 9.93121)">
<stop stop-color="#EE8DB4"/>
<stop offset="1" stop-color="#FC548E"/>
</radialGradient>
<radialGradient id="paint4_radial_24_161" cx="0" cy="0" r="1" gradientUnits="userSpaceOnUse" gradientTransform="translate(77.0364 121.892) rotate(90.9817) scale(12.4623 13.8359)">
<stop stop-color="#EE8DB4"/>
<stop offset="1" stop-color="#FC548E"/>
</radialGradient>
<radialGradient id="paint5_radial_24_161" cx="0" cy="0" r="1" gradientUnits="userSpaceOnUse" gradientTransform="translate(288.211 54.7353) rotate(90) scale(10.331 12.5368)">
<stop stop-color="#EE8DB4"/>
<stop offset="1" stop-color="#FC548E"/>
</radialGradient>
<radialGradient id="paint6_radial_24_161" cx="0" cy="0" r="1" gradientUnits="userSpaceOnUse" gradientTransform="translate(123.765 71.1137) rotate(90) scale(12.3168 12.9763)">
<stop stop-color="#EE8DB4"/>
<stop offset="1" stop-color="#FC548E"/>
</radialGradient>
<radialGradient id="paint7_radial_24_161" cx="0" cy="0" r="1" gradientUnits="userSpaceOnUse" gradientTransform="translate(209.7 65.0916) rotate(108.254) scale(12.3168 12.9763)">
<stop stop-color="#EE8DB4"/>
<stop offset="1" stop-color="#FC548E"/>
</radialGradient>
<radialGradient id="paint8_radial_24_161" cx="0" cy="0" r="1" gradientUnits="userSpaceOnUse" gradientTransform="translate(87.0258 107.384) rotate(79.9573) scale(15.014 16.8702)">
<stop stop-color="#EE8DB4"/>
<stop offset="1" stop-color="#FC548E"/>
</radialGradient>
<radialGradient id="paint9_radial_24_161" cx="0" cy="0" r="1" gradientUnits="userSpaceOnUse" gradientTransform="translate(394.979 26.1637) rotate(79.9573) scale(10.494 11.7694)">
<stop stop-color="#EE8DB4"/>
<stop offset="1" stop-color="#FC548E"/>
</radialGradient>
<radialGradient id="paint10_radial_24_161" cx="0" cy="0" r="1" gradientUnits="userSpaceOnUse" gradientTransform="translate(343.527 48.1055) rotate(79.9573) scale(13.3033 13.7248)">
<stop stop-color="#EE8DB4"/>
<stop offset="1" stop-color="#FC548E"/>
</radialGradient>
<radialGradient id="paint11_radial_24_161" cx="0" cy="0" r="1" gradientUnits="userSpaceOnUse" gradientTransform="translate(263.03 64.1388) rotate(79.9573) scale(11.4377 11.7748)">
<stop stop-color="#EE8DB4"/>
<stop offset="1" stop-color="#FC548E"/>
</radialGradient>
<radialGradient id="paint12_radial_24_161" cx="0" cy="0" r="1" gradientUnits="userSpaceOnUse" gradientTransform="translate(310.489 70.1159) rotate(79.9573) scale(9.96608 10.1988)">
<stop stop-color="#EE8DB4"/>
<stop offset="1" stop-color="#FC548E"/>
</radialGradient>
<radialGradient id="paint13_radial_24_161" cx="0" cy="0" r="1" gradientUnits="userSpaceOnUse" gradientTransform="translate(379.725 67.2319) rotate(131.815) scale(5.34947 6.7814)">
<stop stop-color="#EE8DB4"/>
<stop offset="1" stop-color="#FC548E"/>
</radialGradient>
<radialGradient id="paint14_radial_24_161" cx="0" cy="0" r="1" gradientUnits="userSpaceOnUse" gradientTransform="translate(106.535 85.8296) rotate(-26.6492) scale(5.34949 6.78141)">
<stop stop-color="#EE8DB4"/>
<stop offset="1" stop-color="#FC548E"/>
</radialGradient>
<radialGradient id="paint15_radial_24_161" cx="0" cy="0" r="1" gradientUnits="userSpaceOnUse" gradientTransform="translate(391.725 72.2704) rotate(131.815) scale(3.72492 5.36235)">
<stop stop-color="#EE8DB4"/>
<stop offset="1" stop-color="#FC548E"/>
</radialGradient>
<radialGradient id="paint16_radial_24_161" cx="0" cy="0" r="1" gradientUnits="userSpaceOnUse" gradientTransform="translate(154.908 100.889) rotate(131.815) scale(3.72492 5.36235)">
<stop stop-color="#EE8DB4"/>
<stop offset="1" stop-color="#FC548E"/>
</radialGradient>
<radialGradient id="paint17_radial_24_161" cx="0" cy="0" r="1" gradientUnits="userSpaceOnUse" gradientTransform="translate(385.863 65.0228) rotate(-3.20584) scale(4.89415 5.78972)">
<stop stop-color="#EE8DB4"/>
<stop offset="1" stop-color="#FC548E"/>
</radialGradient>
<radialGradient id="paint18_radial_24_161" cx="0" cy="0" r="1" gradientUnits="userSpaceOnUse" gradientTransform="translate(150.536 104.152) rotate(-170.951) scale(4.89414 5.78972)">
<stop stop-color="#EE8DB4"/>
<stop offset="1" stop-color="#FC548E"/>
</radialGradient>
<radialGradient id="paint19_radial_24_161" cx="0" cy="0" r="1" gradientUnits="userSpaceOnUse" gradientTransform="translate(165.261 60.4916) rotate(45) scale(3.5137 4.15667)">
<stop stop-color="#EE8DB4"/>
<stop offset="1" stop-color="#FC548E"/>
</radialGradient>
<radialGradient id="paint20_radial_24_161" cx="0" cy="0" r="1" gradientUnits="userSpaceOnUse" gradientTransform="translate(158.529 62.1087) rotate(-2.82678) scale(3.51371 4.15668)">
<stop stop-color="#EE8DB4"/>
<stop offset="1" stop-color="#FC548E"/>
</radialGradient>
<radialGradient id="paint21_radial_24_161" cx="0" cy="0" r="1" gradientUnits="userSpaceOnUse" gradientTransform="translate(170.2 69.5838) rotate(75) scale(2.33995 2.76814)">
<stop stop-color="#EE8DB4"/>
<stop offset="1" stop-color="#FC548E"/>
</radialGradient>
<radialGradient id="paint22_radial_24_161" cx="0" cy="0" r="1" gradientUnits="userSpaceOnUse" gradientTransform="translate(161.013 55.59) rotate(15) scale(2.33995 2.76814)">
<stop stop-color="#EE8DB4"/>
<stop offset="1" stop-color="#FC548E"/>
</radialGradient>
</defs>
</svg>
