<?xml version="1.0" encoding="UTF-8" standalone="no"?>
<!DOCTYPE svg PUBLIC "-//W3C//DTD SVG 1.1//EN" "http://www.w3.org/Graphics/SVG/1.1/DTD/svg11.dtd">
<svg width="100%" height="100%" viewBox="0 0 474 180" version="1.1" xmlns="http://www.w3.org/2000/svg" xmlns:xlink="http://www.w3.org/1999/xlink" xml:space="preserve" xmlns:serif="http://www.serif.com/" style="fill-rule:evenodd;clip-rule:evenodd;stroke-linecap:round;stroke-linejoin:round;stroke-miterlimit:1.5;">
    <g transform="matrix(1,0,0,1,-212.391,-182.121)">
        <g>
            <path d="M401.644,259.159C417.35,257.078 435.333,255.606 447.016,253.175C461.908,250.075 479.489,244.418 490.907,240.678C499.315,237.924 505.339,235.668 513.978,233.757C524.405,231.45 544.098,227.708 553.469,226.838C559.051,226.32 564.69,229.458 570.202,228.539C576.176,227.543 578.105,225.685 581.29,224.77C584.433,223.868 586.209,224.093 589.31,223.054C592.959,221.83 601.394,215.711 601.394,215.711L610.249,207.86L616.018,207.86L606.935,215.711L634.561,206.842L648.138,200.872L663.366,193.722L685.402,182.121L681.903,185.895C681.903,185.895 649.032,202.882 640.457,207.86C634.215,211.484 625.34,214.075 620.427,215.711C613.916,217.878 606.454,219.639 601.394,220.863C599.277,221.375 595.24,223.054 595.24,223.054C595.24,223.054 599.343,225.886 601.394,225.886C602.535,225.886 605.993,226.527 608.124,225.886C610.665,225.121 611.82,223.054 611.82,223.054L616.018,224.77C616.018,224.77 612.525,227.413 608.124,228.539C606.038,229.073 602.826,229.404 601.394,229.606C600.097,229.789 597.617,228.745 595.24,228.712C592.19,228.671 589.31,228.539 589.31,228.539C589.31,228.539 587.841,237.003 589.31,240.678C590.778,244.353 598.119,250.589 598.119,250.589L595.24,250.589C595.24,250.589 587.96,244.353 586.504,240.678C585.048,237.003 586.504,228.539 586.504,228.539C586.504,228.539 575.49,233.757 570.202,233.757C566.605,233.757 557.507,231.004 553.469,230.737C549.808,230.495 547.974,231.34 542.553,232.154C536.501,233.062 524.565,234.626 517.156,236.184C509.748,237.743 505.044,240.111 498.49,242.125C492.627,243.926 477.833,248.267 477.833,248.267C477.833,248.267 493.553,250.589 498.49,250.589L508.12,250.589L511.977,240.678L513.978,244.631L513.978,250.589C513.978,250.589 521.919,250.889 525.872,250.589C530.974,250.202 544.591,248.267 544.591,248.267L549.202,250.589C549.202,250.589 538.491,252.579 527.525,254.044C521.951,254.789 516.31,255.397 511.977,255.54C498.897,255.971 471.768,253.175 471.768,253.175C471.768,253.175 469.248,253.762 455.851,257.089C439.254,261.212 397.766,266.072 390.552,268.084C381.166,270.701 374.491,272.269 364.163,276.045C362.264,276.739 357.535,278.582 352.265,280.69C353.822,281.243 355.612,281.656 357.418,281.869C360.371,282.216 363.371,282.033 365.445,280.997C365.693,280.872 365.996,280.973 366.12,281.222C366.244,281.47 366.143,281.772 365.895,281.897C363.673,283.007 360.464,283.24 357.3,282.868C355.007,282.598 352.741,282.013 350.899,281.238C343.93,284.038 336.375,287.162 333.296,288.657C327.284,291.578 320.628,294.512 313.292,296.185C309.487,297.052 305.957,297.94 303.501,298.577C295.526,305.796 285.83,313.763 282.771,316.313C264.685,331.388 212.391,361.833 212.391,361.833L212.391,353.802C212.391,353.802 249.547,332.625 275.227,313.913C286.089,305.998 305.653,289.403 318.329,275.13C326.85,265.536 334.004,254.243 334.004,254.243L340.946,247.926C340.946,247.926 325.244,272.743 314.033,287.945C313.587,288.55 313.008,289.243 312.32,290.005C317.875,287.62 326.02,284.215 333.296,281.528C340.895,278.721 347.609,275.094 356.027,271.421C356.218,270.821 356.435,270.229 356.675,269.645C357.259,268.215 357.967,266.831 358.687,265.478C359.033,264.83 359.423,264.249 359.838,263.702C360.779,262.465 361.855,261.409 362.813,260.098C364.487,257.806 366.278,255.586 368.12,253.405C370.876,250.142 373.748,246.971 376.532,243.808C376.685,243.63 376.955,243.61 377.132,243.764C377.31,243.918 377.33,244.187 377.176,244.364C374.456,247.573 371.643,250.786 368.956,254.097C368.804,254.285 368.652,254.473 368.501,254.661C369.262,254.352 370.156,254.243 370.871,253.983L380.792,251.532C381.018,251.468 381.253,251.599 381.318,251.825C381.382,252.05 381.251,252.286 381.025,252.351L371.162,254.783C370.54,255.009 369.782,255.121 369.095,255.349C368.697,255.482 368.323,255.655 368.036,255.942C367.879,256.099 367.63,256.107 367.462,255.968C366.211,257.562 364.998,259.181 363.844,260.834C362.91,262.171 361.851,263.254 360.934,264.516C360.572,265.014 360.234,265.541 359.937,266.128C359.265,267.451 358.605,268.804 358.063,270.199C358.009,270.336 357.957,270.475 357.906,270.614C364.756,267.714 372.783,264.823 383.261,262.322C388.066,261.175 393.806,260.229 399.952,259.387C400.198,258.783 400.461,258.184 400.739,257.592C401.724,255.496 402.907,253.497 404.277,251.784C404.817,251.11 405.396,250.026 406.086,249.222C406.467,248.778 406.884,248.413 407.33,248.19C407.693,248.008 408.135,248.156 408.316,248.519C408.498,248.882 408.35,249.324 407.987,249.505L405.426,252.703C404.125,254.329 403.005,256.227 402.07,258.217C401.923,258.529 401.781,258.843 401.644,259.159Z" style="fill:rgb(68,68,68);"/>
            <g transform="matrix(1,0,0,1,9.96911,141.14)">
                <path d="M330.216,145.181C327.31,143.472 325.805,140.568 326.819,138.367C327.931,135.951 331.658,135.29 335.136,136.891C335.916,137.25 336.618,137.693 337.224,138.191C338.548,136.571 340.316,135.737 341.953,136.176C343.898,136.697 345.105,138.867 345.146,141.495C348.246,141.24 350.929,142.548 351.477,144.764C352.07,147.159 349.962,149.779 346.686,150.879C347.205,152.933 346.812,154.872 345.463,155.926C343.367,157.563 339.752,156.443 337.395,153.425C337.177,153.147 336.977,152.861 336.796,152.572C336.591,152.637 336.381,152.696 336.168,152.749C332.451,153.669 328.914,152.319 328.275,149.737C327.882,148.148 328.678,146.459 330.216,145.181Z" style="fill:url(#_Radial1);stroke:rgb(232,77,126);stroke-width:1px;"/>
            </g>
            <g transform="matrix(0.792046,0.0135722,-0.0148352,0.865746,169.399,120.739)">
                <path d="M330.216,145.181C327.31,143.472 325.805,140.568 326.819,138.367C327.931,135.951 331.658,135.29 335.136,136.891C335.916,137.25 336.618,137.693 337.224,138.191C338.548,136.571 340.316,135.737 341.953,136.176C343.898,136.697 345.105,138.867 345.146,141.495C348.246,141.24 350.929,142.548 351.477,144.764C352.07,147.159 349.962,149.779 346.686,150.879C347.205,152.933 346.812,154.872 345.463,155.926C343.367,157.563 339.752,156.443 337.395,153.425C337.177,153.147 336.977,152.861 336.796,152.572C336.591,152.637 336.381,152.696 336.168,152.749C332.451,153.669 328.914,152.319 328.275,149.737C327.882,148.148 328.678,146.459 330.216,145.181Z" style="fill:url(#_Radial2);stroke:rgb(232,77,126);stroke-width:1.21px;"/>
            </g>
            <g transform="matrix(0.792046,0.0135722,-0.0148352,0.865746,138.309,119.209)">
                <path d="M330.216,145.181C327.31,143.472 325.805,140.568 326.819,138.367C327.931,135.951 331.658,135.29 335.136,136.891C335.916,137.25 336.618,137.693 337.224,138.191C338.548,136.571 340.316,135.737 341.953,136.176C343.898,136.697 345.105,138.867 345.146,141.495C348.246,141.24 350.929,142.548 351.477,144.764C352.07,147.159 349.962,149.779 346.686,150.879C347.205,152.933 346.812,154.872 345.463,155.926C343.367,157.563 339.752,156.443 337.395,153.425C337.177,153.147 336.977,152.861 336.796,152.572C336.591,152.637 336.381,152.696 336.168,152.749C332.451,153.669 328.914,152.319 328.275,149.737C327.882,148.148 328.678,146.459 330.216,145.181Z" style="fill:url(#_Radial3);stroke:rgb(232,77,126);stroke-width:1.21px;"/>
            </g>
            <g transform="matrix(1.10346,0.0189085,-0.0206679,1.20613,-81.6649,120.936)">
                <path d="M330.216,145.181C327.31,143.472 325.805,140.568 326.819,138.367C327.931,135.951 331.658,135.29 335.136,136.891C335.916,137.25 336.618,137.693 337.224,138.191C338.548,136.571 340.316,135.737 341.953,136.176C343.898,136.697 345.105,138.867 345.146,141.495C348.246,141.24 350.929,142.548 351.477,144.764C352.07,147.159 349.962,149.779 346.686,150.879C347.205,152.933 346.812,154.872 345.463,155.926C343.367,157.563 339.752,156.443 337.395,153.425C337.177,153.147 336.977,152.861 336.796,152.572C336.591,152.637 336.381,152.696 336.168,152.749C332.451,153.669 328.914,152.319 328.275,149.737C327.882,148.148 328.678,146.459 330.216,145.181Z" style="fill:url(#_Radial4);stroke:rgb(232,77,126);stroke-width:0.86px;"/>
            </g>
            <g transform="matrix(1,0,0,1,161.562,90.3574)">
                <path d="M330.216,145.181C327.31,143.472 325.805,140.568 326.819,138.367C327.931,135.951 331.658,135.29 335.136,136.891C335.916,137.25 336.618,137.693 337.224,138.191C338.548,136.571 340.316,135.737 341.953,136.176C343.898,136.697 345.105,138.867 345.146,141.495C348.246,141.24 350.929,142.548 351.477,144.764C352.07,147.159 349.962,149.779 346.686,150.879C347.205,152.933 346.812,154.872 345.463,155.926C343.367,157.563 339.752,156.443 337.395,153.425C337.177,153.147 336.977,152.861 336.796,152.572C336.591,152.637 336.381,152.696 336.168,152.749C332.451,153.669 328.914,152.319 328.275,149.737C327.882,148.148 328.678,146.459 330.216,145.181Z" style="fill:url(#_Radial5);stroke:rgb(232,77,126);stroke-width:1px;"/>
            </g>
            <g transform="matrix(1,0,0,1,-1.44678,132.322)">
                <path d="M330.515,115.09C330.148,111.94 331.409,109.16 333.646,108.561C336.146,107.891 338.95,110.187 340.012,113.718C340.192,113.514 340.383,113.314 340.585,113.12C343.344,110.465 347.081,109.865 348.925,111.782C350.769,113.698 350.027,117.41 347.267,120.065C346.984,120.337 346.691,120.588 346.39,120.817C349.514,122.361 351.26,125.273 350.329,127.575C349.333,130.041 345.642,130.879 342.091,129.444C341.416,129.172 340.795,128.836 340.238,128.456C338.865,131.762 335.966,133.727 333.578,132.883C331.07,131.997 330.07,128.347 331.346,124.736C331.356,124.708 331.366,124.681 331.375,124.653C327.83,124.762 324.872,122.959 324.641,120.455C324.409,117.945 326.999,115.626 330.515,115.09Z" style="fill:url(#_Radial6);stroke:rgb(232,77,126);stroke-width:1px;"/>
            </g>
            <g transform="matrix(0.949679,0.313224,-0.313224,0.949679,139.302,26.6313)">
                <path d="M330.515,115.09C330.148,111.94 331.409,109.16 333.646,108.561C336.146,107.891 338.95,110.187 340.012,113.718C340.192,113.514 340.383,113.314 340.585,113.12C343.344,110.465 347.081,109.865 348.925,111.782C350.769,113.698 350.027,117.41 347.267,120.065C346.984,120.337 346.691,120.588 346.39,120.817C349.514,122.361 351.26,125.273 350.329,127.575C349.333,130.041 345.642,130.879 342.091,129.444C341.416,129.172 340.795,128.836 340.238,128.456C338.865,131.762 335.966,133.727 333.578,132.883C331.07,131.997 330.07,128.347 331.346,124.736C331.356,124.708 331.366,124.681 331.375,124.653C327.83,124.762 324.872,122.959 324.641,120.455C324.409,117.945 326.999,115.626 330.515,115.09Z" style="fill:url(#_Radial7);stroke:rgb(232,77,126);stroke-width:1px;"/>
            </g>
            <g transform="matrix(1.28016,-0.226711,0.212569,1.20031,-158.439,220.941)">
                <path d="M330.515,115.09C330.148,111.94 331.409,109.16 333.646,108.561C336.146,107.891 338.95,110.187 340.012,113.718C340.192,113.514 340.383,113.314 340.585,113.12C343.344,110.465 347.081,109.865 348.925,111.782C350.769,113.698 350.027,117.41 347.267,120.065C346.984,120.337 346.691,120.588 346.39,120.817C349.514,122.361 351.26,125.273 350.329,127.575C349.333,130.041 345.642,130.879 342.091,129.444C341.416,129.172 340.795,128.836 340.238,128.456C338.865,131.762 335.966,133.727 333.578,132.883C331.07,131.997 330.07,128.347 331.346,124.736C331.356,124.708 331.366,124.681 331.375,124.653C327.83,124.762 324.872,122.959 324.641,120.455C324.409,117.945 326.999,115.626 330.515,115.09Z" style="fill:url(#_Radial8);stroke:rgb(232,77,126);stroke-width:0.79px;"/>
            </g>
            <g transform="matrix(0.893095,-0.158163,0.148575,0.838952,287.916,160.217)">
                <path d="M330.515,115.09C330.148,111.94 331.409,109.16 333.646,108.561C336.146,107.891 338.95,110.187 340.012,113.718C340.192,113.514 340.383,113.314 340.585,113.12C343.344,110.465 347.081,109.865 348.925,111.782C350.769,113.698 350.027,117.41 347.267,120.065C346.984,120.337 346.691,120.588 346.39,120.817C349.514,122.361 351.26,125.273 350.329,127.575C349.333,130.041 345.642,130.879 342.091,129.444C341.416,129.172 340.795,128.836 340.238,128.456C338.865,131.762 335.966,133.727 333.578,132.883C331.07,131.997 330.07,128.347 331.346,124.736C331.356,124.708 331.366,124.681 331.375,124.653C327.83,124.762 324.872,122.959 324.641,120.455C324.409,117.945 326.999,115.626 330.515,115.09Z" style="fill:url(#_Radial9);stroke:rgb(232,77,126);stroke-width:1.14px;"/>
            </g>
            <g transform="matrix(1.04148,-0.184442,0.188349,1.06354,181.566,163.909)">
                <path d="M330.515,115.09C330.148,111.94 331.409,109.16 333.646,108.561C336.146,107.891 338.95,110.187 340.012,113.718C340.192,113.514 340.383,113.314 340.585,113.12C343.344,110.465 347.081,109.865 348.925,111.782C350.769,113.698 350.027,117.41 347.267,120.065C346.984,120.337 346.691,120.588 346.39,120.817C349.514,122.361 351.26,125.273 350.329,127.575C349.333,130.041 345.642,130.879 342.091,129.444C341.416,129.172 340.795,128.836 340.238,128.456C338.865,131.762 335.966,133.727 333.578,132.883C331.07,131.997 330.07,128.347 331.346,124.736C331.356,124.708 331.366,124.681 331.375,124.653C327.83,124.762 324.872,122.959 324.641,120.455C324.409,117.945 326.999,115.626 330.515,115.09Z" style="fill:url(#_Radial10);stroke:rgb(232,77,126);stroke-width:0.94px;"/>
            </g>
            <g transform="matrix(0.893507,-0.158236,0.161936,0.914396,154.215,189.106)">
                <path d="M330.515,115.09C330.148,111.94 331.409,109.16 333.646,108.561C336.146,107.891 338.95,110.187 340.012,113.718C340.192,113.514 340.383,113.314 340.585,113.12C343.344,110.465 347.081,109.865 348.925,111.782C350.769,113.698 350.027,117.41 347.267,120.065C346.984,120.337 346.691,120.588 346.39,120.817C349.514,122.361 351.26,125.273 350.329,127.575C349.333,130.041 345.642,130.879 342.091,129.444C341.416,129.172 340.795,128.836 340.238,128.456C338.865,131.762 335.966,133.727 333.578,132.883C331.07,131.997 330.07,128.347 331.346,124.736C331.356,124.708 331.366,124.681 331.375,124.653C327.83,124.762 324.872,122.959 324.641,120.455C324.409,117.945 326.999,115.626 330.515,115.09Z" style="fill:url(#_Radial11);stroke:rgb(232,77,126);stroke-width:1.09px;"/>
            </g>
            <g transform="matrix(0.773917,-0.137057,0.141101,0.796747,244.564,202.141)">
                <path d="M330.515,115.09C330.148,111.94 331.409,109.16 333.646,108.561C336.146,107.891 338.95,110.187 340.012,113.718C340.192,113.514 340.383,113.314 340.585,113.12C343.344,110.465 347.081,109.865 348.925,111.782C350.769,113.698 350.027,117.41 347.267,120.065C346.984,120.337 346.691,120.588 346.39,120.817C349.514,122.361 351.26,125.273 350.329,127.575C349.333,130.041 345.642,130.879 342.091,129.444C341.416,129.172 340.795,128.836 340.238,128.456C338.865,131.762 335.966,133.727 333.578,132.883C331.07,131.997 330.07,128.347 331.346,124.736C331.356,124.708 331.366,124.681 331.375,124.653C327.83,124.762 324.872,122.959 324.641,120.455C324.409,117.945 326.999,115.626 330.515,115.09Z" style="fill:url(#_Radial12);stroke:rgb(232,77,126);stroke-width:1.25px;"/>
            </g>
            <g transform="matrix(0.265215,0.237253,-0.161138,0.180129,520.594,154.111)">
                <path d="M333.252,73.804C342.395,73.804 347.021,87.323 347.021,96.466C347.021,105.609 339.76,118.072 330.617,118.072C321.474,118.072 308.907,101.772 308.907,92.629C308.907,83.485 324.109,73.804 333.252,73.804Z" style="fill:url(#_Radial13);stroke:rgb(232,77,126);stroke-width:3.29px;"/>
            </g>
            <g transform="matrix(-0.159607,-0.318047,0.216012,-0.108403,350.547,382.508)">
                <path d="M333.252,73.804C342.395,73.804 347.021,87.323 347.021,96.466C347.021,105.609 339.76,118.072 330.617,118.072C321.474,118.072 308.907,101.772 308.907,92.629C308.907,83.485 324.109,73.804 333.252,73.804Z" style="fill:url(#_Radial14);stroke:rgb(232,77,126);stroke-width:3.29px;"/>
            </g>
            <g transform="matrix(0.745649,0,0,0.745649,796.531,198.146)">
                <path d="M-252.509,38.911C-250.206,36.722 -247.161,36.175 -245.663,37.702C-244.143,39.251 -244.788,42.352 -247.103,44.622C-247.35,44.866 -247.608,45.089 -247.871,45.293C-247.351,47.973 -248.138,50.434 -250.009,51.324C-252.411,52.465 -255.696,50.585 -257.34,47.126C-258.984,43.668 -258.368,39.933 -255.966,38.791C-254.913,38.291 -253.69,38.371 -252.509,38.911Z" style="fill:url(#_Radial15);stroke:rgb(232,77,126);stroke-width:1.34px;"/>
            </g>
            <g transform="matrix(0.372824,-0.645751,0.645751,0.372824,609.386,69.4113)">
                <path d="M-252.509,38.911C-250.206,36.722 -247.161,36.175 -245.663,37.702C-244.143,39.251 -244.788,42.352 -247.103,44.622C-247.35,44.866 -247.608,45.089 -247.871,45.293C-247.351,47.973 -248.138,50.434 -250.009,51.324C-252.411,52.465 -255.696,50.585 -257.34,47.126C-258.984,43.668 -258.368,39.933 -255.966,38.791C-254.913,38.291 -253.69,38.371 -252.509,38.911Z" style="fill:url(#_Radial16);stroke:rgb(232,77,126);stroke-width:1.34px;"/>
            </g>
            <g transform="matrix(0.250325,-0.0879858,0.0597584,0.170017,522.605,240.538)">
                <path d="M333.252,73.804C342.395,73.804 347.021,87.323 347.021,96.466C347.021,105.609 339.76,118.072 330.617,118.072C321.474,118.072 308.907,101.772 308.907,92.629C308.907,83.485 324.109,73.804 333.252,73.804Z" style="fill:url(#_Radial17);stroke:rgb(232,77,126);stroke-width:4.41px;"/>
            </g>
            <g transform="matrix(0.0489647,-0.260781,0.177118,0.033256,509.136,327.834)">
                <path d="M333.252,73.804C342.395,73.804 347.021,87.323 347.021,96.466C347.021,105.609 339.76,118.072 330.617,118.072C321.474,118.072 308.907,101.772 308.907,92.629C308.907,83.485 324.109,73.804 333.252,73.804Z" style="fill:url(#_Radial18);stroke:rgb(232,77,126);stroke-width:4.41px;"/>
            </g>
            <g transform="matrix(0.185706,0.166127,-0.149911,0.167579,558.13,184.001)">
                <path d="M330.455,79.9C339.598,79.9 347.021,87.323 347.021,96.466C347.021,105.609 339.598,113.033 330.455,113.033C321.311,113.033 303.979,109.837 303.979,100.694C303.979,91.551 321.311,79.9 330.455,79.9Z" style="fill:url(#_Radial19);stroke:rgb(232,77,126);stroke-width:4.21px;"/>
            </g>
            <g transform="matrix(0.185706,0.166127,-0.149911,0.167579,321.313,212.619)">
                <path d="M330.455,79.9C339.598,79.9 347.021,87.323 347.021,96.466C347.021,105.609 339.598,113.033 330.455,113.033C321.311,113.033 303.979,109.837 303.979,100.694C303.979,91.551 321.311,79.9 330.455,79.9Z" style="fill:url(#_Radial20);stroke:rgb(232,77,126);stroke-width:4.21px;"/>
            </g>
            <g transform="matrix(-0.0165885,-0.296163,0.294962,-0.0165211,575.232,345.581)">
                <path d="M330.455,79.9C339.598,79.9 347.021,87.323 347.021,96.466C347.021,105.609 339.598,113.033 330.455,113.033C321.311,113.033 307.984,108.818 307.984,99.674C307.984,90.531 321.311,79.9 330.455,79.9Z" style="fill:url(#_Radial21);stroke:rgb(232,77,126);stroke-width:3.38px;"/>
            </g>
            <g transform="matrix(-0.0466558,0.292935,-0.291747,-0.0464665,406.351,194.668)">
                <path d="M330.455,79.9C339.598,79.9 347.021,87.323 347.021,96.466C347.021,105.609 339.598,113.033 330.455,113.033C321.311,113.033 307.984,108.818 307.984,99.674C307.984,90.531 321.311,79.9 330.455,79.9Z" style="fill:url(#_Radial22);stroke:rgb(232,77,126);stroke-width:3.38px;"/>
            </g>
            <g transform="matrix(0.150586,-0.150586,0.149975,0.149975,313.867,277.312)">
                <path d="M330.455,79.9C339.598,79.9 347.021,87.323 347.021,96.466C347.021,105.609 339.598,113.033 330.455,113.033C321.311,113.033 307.984,108.818 307.984,99.674C307.984,90.531 321.311,79.9 330.455,79.9Z" style="fill:url(#_Radial23);stroke:rgb(232,77,126);stroke-width:4.71px;"/>
            </g>
            <g transform="matrix(-0.0105025,-0.212702,0.211839,-0.0104599,353.924,314.748)">
                <path d="M330.455,79.9C339.598,79.9 347.021,87.323 347.021,96.466C347.021,105.609 339.598,113.033 330.455,113.033C321.311,113.033 307.984,108.818 307.984,99.674C307.984,90.531 321.311,79.9 330.455,79.9Z" style="fill:url(#_Radial24);stroke:rgb(232,77,126);stroke-width:4.71px;"/>
            </g>
            <g transform="matrix(0.136989,-0.036706,0.0365571,0.136433,334.2,250.414)">
                <path d="M330.455,79.9C339.598,79.9 347.021,87.323 347.021,96.466C347.021,105.609 339.598,113.033 330.455,113.033C321.311,113.033 307.984,108.818 307.984,99.674C307.984,90.531 321.311,79.9 330.455,79.9Z" style="fill:url(#_Radial25);stroke:rgb(232,77,126);stroke-width:7.07px;"/>
            </g>
            <g transform="matrix(0.036706,-0.136989,0.136433,0.0365571,348.221,278.898)">
                <path d="M330.455,79.9C339.598,79.9 347.021,87.323 347.021,96.466C347.021,105.609 339.598,113.033 330.455,113.033C321.311,113.033 307.984,108.818 307.984,99.674C307.984,90.531 321.311,79.9 330.455,79.9Z" style="fill:url(#_Radial26);stroke:rgb(232,77,126);stroke-width:7.07px;"/>
            </g>
            <g transform="matrix(0.188735,-0.185169,0.123948,0.126335,534.889,274.592)">
                <circle cx="330.455" cy="96.466" r="16.566" style="fill:rgb(254,138,180);"/>
            </g>
            <g transform="matrix(-0.065993,-0.256034,0.171384,-0.0441743,544.769,334.223)">
                <circle cx="330.455" cy="96.466" r="16.566" style="fill:rgb(254,138,180);"/>
            </g>
            <g transform="matrix(0.246292,0.191982,-0.0793537,0.101802,533.469,163.182)">
                <circle cx="330.455" cy="96.466" r="16.566" style="fill:rgb(254,138,180);"/>
            </g>
            <g transform="matrix(0.289407,-0.117304,0.0484865,0.119623,447.575,279.747)">
                <circle cx="330.455" cy="96.466" r="16.566" style="fill:rgb(254,138,180);"/>
            </g>
            <g transform="matrix(0.0696536,-0.304409,0.156769,0.0358712,566.562,326.893)">
                <circle cx="330.455" cy="96.466" r="16.566" style="fill:rgb(254,138,180);stroke:rgb(255,91,140);stroke-width:4.03px;"/>
            </g>
            <g transform="matrix(-0.228799,-0.212526,0.10945,-0.11783,605.9,332.944)">
                <circle cx="330.455" cy="96.466" r="16.566" style="fill:rgb(254,138,180);stroke:rgb(255,91,140);stroke-width:4.03px;"/>
            </g>
        </g>
    </g>
    <defs>
        <radialGradient id="_Radial1" cx="0" cy="0" r="1" gradientUnits="userSpaceOnUse" gradientTransform="matrix(12.537,0,-0,12.537,339.04,146.348)"><stop offset="0" style="stop-color:rgb(245,114,162);stop-opacity:1"/><stop offset="1" style="stop-color:rgb(252,86,143);stop-opacity:1"/></radialGradient>
        <radialGradient id="_Radial2" cx="0" cy="0" r="1" gradientUnits="userSpaceOnUse" gradientTransform="matrix(12.537,1.44329e-14,-1.71529e-14,11.4697,339.04,146.348)"><stop offset="0" style="stop-color:rgb(245,114,162);stop-opacity:1"/><stop offset="1" style="stop-color:rgb(252,86,143);stop-opacity:1"/></radialGradient>
        <radialGradient id="_Radial3" cx="0" cy="0" r="1" gradientUnits="userSpaceOnUse" gradientTransform="matrix(12.537,1.44329e-14,-1.71529e-14,11.4697,339.04,146.348)"><stop offset="0" style="stop-color:rgb(245,114,162);stop-opacity:1"/><stop offset="1" style="stop-color:rgb(252,86,143);stop-opacity:1"/></radialGradient>
        <radialGradient id="_Radial4" cx="0" cy="0" r="1" gradientUnits="userSpaceOnUse" gradientTransform="matrix(12.537,1.9873e-14,-2.30926e-14,11.4697,339.04,146.348)"><stop offset="0" style="stop-color:rgb(245,114,162);stop-opacity:1"/><stop offset="1" style="stop-color:rgb(252,86,143);stop-opacity:1"/></radialGradient>
        <radialGradient id="_Radial5" cx="0" cy="0" r="1" gradientUnits="userSpaceOnUse" gradientTransform="matrix(12.537,0,-0,12.537,339.04,146.348)"><stop offset="0" style="stop-color:rgb(245,114,162);stop-opacity:1"/><stop offset="1" style="stop-color:rgb(252,86,143);stop-opacity:1"/></radialGradient>
        <radialGradient id="_Radial6" cx="0" cy="0" r="1" gradientUnits="userSpaceOnUse" gradientTransform="matrix(12.9763,0,-0,12.9763,337.603,120.762)"><stop offset="0" style="stop-color:rgb(245,114,162);stop-opacity:1"/><stop offset="1" style="stop-color:rgb(252,86,143);stop-opacity:1"/></radialGradient>
        <radialGradient id="_Radial7" cx="0" cy="0" r="1" gradientUnits="userSpaceOnUse" gradientTransform="matrix(12.9763,-7.54952e-15,7.54952e-15,12.9763,337.603,120.762)"><stop offset="0" style="stop-color:rgb(245,114,162);stop-opacity:1"/><stop offset="1" style="stop-color:rgb(252,86,143);stop-opacity:1"/></radialGradient>
        <radialGradient id="_Radial8" cx="0" cy="0" r="1" gradientUnits="userSpaceOnUse" gradientTransform="matrix(8.8257,4.57815,-4.29258,9.41285,335.55,117.397)"><stop offset="0" style="stop-color:rgb(245,114,162);stop-opacity:1"/><stop offset="1" style="stop-color:rgb(252,86,143);stop-opacity:1"/></radialGradient>
        <radialGradient id="_Radial9" cx="0" cy="0" r="1" gradientUnits="userSpaceOnUse" gradientTransform="matrix(12.9763,-1.24345e-14,1.11022e-14,13.8138,337.603,120.762)"><stop offset="0" style="stop-color:rgb(245,114,162);stop-opacity:1"/><stop offset="1" style="stop-color:rgb(252,86,143);stop-opacity:1"/></radialGradient>
        <radialGradient id="_Radial10" cx="0" cy="0" r="1" gradientUnits="userSpaceOnUse" gradientTransform="matrix(12.9763,-7.54952e-15,7.54952e-15,12.7071,337.603,120.762)"><stop offset="0" style="stop-color:rgb(245,114,162);stop-opacity:1"/><stop offset="1" style="stop-color:rgb(252,86,143);stop-opacity:1"/></radialGradient>
        <radialGradient id="_Radial11" cx="0" cy="0" r="1" gradientUnits="userSpaceOnUse" gradientTransform="matrix(12.9763,3.10862e-15,-3.55271e-15,12.6799,337.603,120.762)"><stop offset="0" style="stop-color:rgb(245,114,162);stop-opacity:1"/><stop offset="1" style="stop-color:rgb(252,86,143);stop-opacity:1"/></radialGradient>
        <radialGradient id="_Radial12" cx="0" cy="0" r="1" gradientUnits="userSpaceOnUse" gradientTransform="matrix(12.9763,-2.66454e-14,2.66454e-14,12.6045,337.603,120.762)"><stop offset="0" style="stop-color:rgb(245,114,162);stop-opacity:1"/><stop offset="1" style="stop-color:rgb(252,86,143);stop-opacity:1"/></radialGradient>
        <radialGradient id="_Radial13" cx="0" cy="0" r="1" gradientUnits="userSpaceOnUse" gradientTransform="matrix(19.0567,-1.1724e-13,7.81597e-14,28.0584,327.964,95.9382)"><stop offset="0" style="stop-color:rgb(245,114,162);stop-opacity:1"/><stop offset="1" style="stop-color:rgb(252,86,143);stop-opacity:1"/></radialGradient>
        <radialGradient id="_Radial14" cx="0" cy="0" r="1" gradientUnits="userSpaceOnUse" gradientTransform="matrix(19.0567,-1.1191e-13,7.63833e-14,28.0584,327.964,95.9382)"><stop offset="0" style="stop-color:rgb(245,114,162);stop-opacity:1"/><stop offset="1" style="stop-color:rgb(252,86,143);stop-opacity:1"/></radialGradient>
        <radialGradient id="_Radial15" cx="0" cy="0" r="1" gradientUnits="userSpaceOnUse" gradientTransform="matrix(6.71046,0,-0,6.71046,-251.551,44.2467)"><stop offset="0" style="stop-color:rgb(245,114,162);stop-opacity:1"/><stop offset="1" style="stop-color:rgb(252,86,143);stop-opacity:1"/></radialGradient>
        <radialGradient id="_Radial16" cx="0" cy="0" r="1" gradientUnits="userSpaceOnUse" gradientTransform="matrix(6.71046,-6.03961e-14,6.03961e-14,6.71046,-251.551,44.2467)"><stop offset="0" style="stop-color:rgb(245,114,162);stop-opacity:1"/><stop offset="1" style="stop-color:rgb(252,86,143);stop-opacity:1"/></radialGradient>
        <radialGradient id="_Radial17" cx="0" cy="0" r="1" gradientUnits="userSpaceOnUse" gradientTransform="matrix(19.0567,-3.90799e-14,2.4869e-14,28.0584,327.964,95.9382)"><stop offset="0" style="stop-color:rgb(245,114,162);stop-opacity:1"/><stop offset="1" style="stop-color:rgb(252,86,143);stop-opacity:1"/></radialGradient>
        <radialGradient id="_Radial18" cx="0" cy="0" r="1" gradientUnits="userSpaceOnUse" gradientTransform="matrix(19.0567,1.03917e-13,-7.32747e-14,28.0584,327.964,95.9382)"><stop offset="0" style="stop-color:rgb(245,114,162);stop-opacity:1"/><stop offset="1" style="stop-color:rgb(252,86,143);stop-opacity:1"/></radialGradient>
        <radialGradient id="_Radial19" cx="0" cy="0" r="1" gradientUnits="userSpaceOnUse" gradientTransform="matrix(21.5211,-1.86517e-13,1.7053e-13,23.849,325.5,96.4663)"><stop offset="0" style="stop-color:rgb(245,114,162);stop-opacity:1"/><stop offset="1" style="stop-color:rgb(252,86,143);stop-opacity:1"/></radialGradient>
        <radialGradient id="_Radial20" cx="0" cy="0" r="1" gradientUnits="userSpaceOnUse" gradientTransform="matrix(21.5211,7.63833e-14,-6.92779e-14,23.849,325.5,96.4663)"><stop offset="0" style="stop-color:rgb(245,114,162);stop-opacity:1"/><stop offset="1" style="stop-color:rgb(252,86,143);stop-opacity:1"/></radialGradient>
        <radialGradient id="_Radial21" cx="0" cy="0" r="1" gradientUnits="userSpaceOnUse" gradientTransform="matrix(19.5185,-1.65645e-13,1.62759e-13,19.598,327.502,96.4663)"><stop offset="0" style="stop-color:rgb(245,114,162);stop-opacity:1"/><stop offset="1" style="stop-color:rgb(252,86,143);stop-opacity:1"/></radialGradient>
        <radialGradient id="_Radial22" cx="0" cy="0" r="1" gradientUnits="userSpaceOnUse" gradientTransform="matrix(19.5185,6.83897e-14,-7.28306e-14,19.598,327.502,96.4663)"><stop offset="0" style="stop-color:rgb(245,114,162);stop-opacity:1"/><stop offset="1" style="stop-color:rgb(252,86,143);stop-opacity:1"/></radialGradient>
        <radialGradient id="_Radial23" cx="0" cy="0" r="1" gradientUnits="userSpaceOnUse" gradientTransform="matrix(19.5185,-9.59233e-14,9.05942e-14,19.598,327.502,96.4663)"><stop offset="0" style="stop-color:rgb(245,114,162);stop-opacity:1"/><stop offset="1" style="stop-color:rgb(252,86,143);stop-opacity:1"/></radialGradient>
        <radialGradient id="_Radial24" cx="0" cy="0" r="1" gradientUnits="userSpaceOnUse" gradientTransform="matrix(19.5185,3.65263e-14,-4.27436e-14,19.598,327.502,96.4663)"><stop offset="0" style="stop-color:rgb(245,114,162);stop-opacity:1"/><stop offset="1" style="stop-color:rgb(252,86,143);stop-opacity:1"/></radialGradient>
        <radialGradient id="_Radial25" cx="0" cy="0" r="1" gradientUnits="userSpaceOnUse" gradientTransform="matrix(19.5185,7.28306e-14,-7.72715e-14,19.598,327.502,96.4663)"><stop offset="0" style="stop-color:rgb(245,114,162);stop-opacity:1"/><stop offset="1" style="stop-color:rgb(252,86,143);stop-opacity:1"/></radialGradient>
        <radialGradient id="_Radial26" cx="0" cy="0" r="1" gradientUnits="userSpaceOnUse" gradientTransform="matrix(19.5185,1.08358e-13,-1.14575e-13,19.598,327.502,96.4663)"><stop offset="0" style="stop-color:rgb(245,114,162);stop-opacity:1"/><stop offset="1" style="stop-color:rgb(252,86,143);stop-opacity:1"/></radialGradient>
    </defs>
</svg>
