<?xml version="1.0" encoding="UTF-8" standalone="no"?>
<!DOCTYPE svg PUBLIC "-//W3C//DTD SVG 1.1//EN" "http://www.w3.org/Graphics/SVG/1.1/DTD/svg11.dtd">
<svg width="100%" height="100%" viewBox="0 0 509 162" version="1.1" xmlns="http://www.w3.org/2000/svg" xmlns:xlink="http://www.w3.org/1999/xlink" xml:space="preserve" xmlns:serif="http://www.serif.com/" style="fill-rule:evenodd;clip-rule:evenodd;stroke-linejoin:round;stroke-miterlimit:2;">
    <path d="M488,60L274,60C269.033,60 265,55.967 265,51C265,46.033 269.033,42 274,42L275,42C286.59,42 296,32.59 296,21C296,9.41 286.59,0 275,0L21,0C9.41,0 0,9.41 0,21C0,32.59 9.41,42 21,42L188,42C192.967,42 197,46.033 197,51C197,55.967 192.967,60 188,60L122,60C110.41,60 101,69.41 101,81C101,92.59 110.41,102 122,102L160,102C164.967,102 169,106.033 169,111C169,115.967 164.967,120 160,120L54,120C42.41,120 33,129.41 33,141C33,152.59 42.41,162 54,162L308,162C319.59,162 329,152.59 329,141C329,129.41 319.59,120 308,120L246,120C241.033,120 237,115.967 237,111C237,106.033 241.033,102 246,102L488,102C499.59,102 509,92.59 509,81C509,69.41 499.59,60 488,60Z" style="fill:rgb(232,234,226);"/>
</svg>
